<svg width="120" height="120" viewBox="0 0 120 120" fill="none" xmlns="http://www.w3.org/2000/svg">
<path d="M60 42L106.765 78.75H13.2346L60 42Z" fill="#B9ED64" fill-opacity="0.5"/>
<ellipse cx="59.9355" cy="79" rx="46.5" ry="5" fill="url(#paint0_linear_324_6)"/>
<circle cx="36.9355" cy="67.5" r="0.5" fill="#B9ED64"/>
<circle cx="52.9355" cy="63.5" r="0.5" fill="#B9ED64"/>
<circle cx="63.9355" cy="71.5" r="0.5" fill="#B9ED64"/>
<circle cx="68.9355" cy="54.5" r="0.5" fill="#B9ED64"/>
<circle cx="53.9355" cy="51.5" r="0.5" fill="#B9ED64"/>
<circle cx="79.9355" cy="77.5" r="0.5" fill="#B9ED64"/>
<circle cx="40.9355" cy="78.5" r="0.5" fill="#B9ED64"/>
<circle cx="83.9355" cy="65.5" r="0.5" fill="#B9ED64"/>
<circle cx="93.9355" cy="79.5" r="0.5" fill="#B9ED64"/>
<circle cx="29.9355" cy="72.5" r="0.5" fill="#B9ED64"/>
<circle cx="64.9355" cy="61.5" r="0.5" fill="#B9ED64"/>
<circle cx="55.9355" cy="81.5" r="0.5" fill="#B9ED64"/>
<circle cx="47.9355" cy="57.5" r="0.5" fill="#B9ED64"/>
<circle cx="75.9355" cy="67.5" r="0.5" fill="#B9ED64"/>
<circle cx="49.9355" cy="70.5" r="0.5" fill="#B9ED64"/>
<circle cx="43.4355" cy="66" r="1" fill="#B9ED64"/>
<circle cx="62.4355" cy="53" r="1" fill="#B9ED64"/>
<circle cx="57.4355" cy="71" r="1" fill="#B9ED64"/>
<circle cx="73.4355" cy="62" r="1" fill="#B9ED64"/>
<circle cx="70.4355" cy="82" r="1" fill="#B9ED64"/>
<circle cx="82.4355" cy="71" r="1" fill="#B9ED64"/>
<circle cx="38.4355" cy="74" r="1" fill="#B9ED64"/>
<circle cx="28.4355" cy="77" r="1" fill="#B9ED64"/>
<circle cx="42.4355" cy="60" r="1" fill="#B9ED64"/>
<circle cx="71.4355" cy="68" r="1" fill="#B9ED64"/>
<circle cx="56.4355" cy="57" r="1" fill="#B9ED64"/>
<circle cx="49.4355" cy="79" r="1" fill="#B9ED64"/>
<circle cx="97.4355" cy="75" r="1" fill="#B9ED64"/>
<circle cx="59.4355" cy="64" r="1" fill="#B9ED64"/>
<circle cx="67.4355" cy="76" r="1" fill="#B9ED64"/>
<path d="M39.2563 78H34.3963C34.0163 78 33.7363 77.92 33.5563 77.76C33.3963 77.58 33.3163 77.3 33.3163 76.92V73.08L28.7263 66.93C28.2663 66.31 27.9563 65.77 27.7963 65.31C27.6563 64.85 27.5863 64.16 27.5863 63.24V57.48C27.5863 57.1 27.6663 56.83 27.8263 56.67C28.0063 56.49 28.2863 56.4 28.6663 56.4H33.2863C33.6663 56.4 33.9363 56.49 34.0963 56.67C34.2763 56.83 34.3663 57.1 34.3663 57.48V62.4C34.3663 62.6 34.3763 62.81 34.3963 63.03C34.4163 63.25 34.4963 63.46 34.6363 63.66L36.0163 65.82C36.1163 66 36.2163 66.13 36.3163 66.21C36.4363 66.29 36.5763 66.33 36.7363 66.33H37.0363C37.1963 66.33 37.3263 66.29 37.4263 66.21C37.5463 66.13 37.6563 66 37.7563 65.82L39.1363 63.66C39.2763 63.46 39.3563 63.25 39.3763 63.03C39.3963 62.81 39.4063 62.6 39.4063 62.4V57.48C39.4063 57.1 39.4863 56.83 39.6463 56.67C39.8263 56.49 40.1063 56.4 40.4863 56.4H44.9563C45.3363 56.4 45.6063 56.49 45.7663 56.67C45.9463 56.83 46.0363 57.1 46.0363 57.48V63.24C46.0363 64.16 45.9563 64.85 45.7963 65.31C45.6363 65.77 45.3363 66.31 44.8963 66.93L40.3363 73.11V76.92C40.3363 77.3 40.2463 77.58 40.0663 77.76C39.9063 77.92 39.6363 78 39.2563 78ZM60.4087 78H55.5487C55.1687 78 54.8887 77.92 54.7087 77.76C54.5487 77.58 54.4687 77.3 54.4687 76.92V73.08L49.8787 66.93C49.4187 66.31 49.1087 65.77 48.9487 65.31C48.8087 64.85 48.7387 64.16 48.7387 63.24V57.48C48.7387 57.1 48.8187 56.83 48.9787 56.67C49.1587 56.49 49.4387 56.4 49.8187 56.4H54.4387C54.8187 56.4 55.0887 56.49 55.2487 56.67C55.4287 56.83 55.5187 57.1 55.5187 57.48V62.4C55.5187 62.6 55.5287 62.81 55.5487 63.03C55.5687 63.25 55.6487 63.46 55.7887 63.66L57.1687 65.82C57.2687 66 57.3687 66.13 57.4687 66.21C57.5887 66.29 57.7287 66.33 57.8887 66.33H58.1887C58.3487 66.33 58.4787 66.29 58.5787 66.21C58.6987 66.13 58.8087 66 58.9087 65.82L60.2887 63.66C60.4287 63.46 60.5087 63.25 60.5287 63.03C60.5487 62.81 60.5587 62.6 60.5587 62.4V57.48C60.5587 57.1 60.6387 56.83 60.7987 56.67C60.9787 56.49 61.2587 56.4 61.6387 56.4H66.1087C66.4887 56.4 66.7587 56.49 66.9187 56.67C67.0987 56.83 67.1887 57.1 67.1887 57.48V63.24C67.1887 64.16 67.1087 64.85 66.9487 65.31C66.7887 65.77 66.4887 66.31 66.0487 66.93L61.4887 73.11V76.92C61.4887 77.3 61.3987 77.58 61.2187 77.76C61.0587 77.92 60.7887 78 60.4087 78ZM76.161 78H71.691C71.311 78 71.031 77.92 70.851 77.76C70.691 77.58 70.611 77.3 70.611 76.92V57.48C70.611 57.1 70.691 56.83 70.851 56.67C71.031 56.49 71.311 56.4 71.691 56.4H76.521C76.841 56.4 77.101 56.47 77.301 56.61C77.521 56.75 77.721 56.98 77.901 57.3L80.601 62.19C80.701 62.37 80.781 62.5 80.841 62.58C80.921 62.66 81.021 62.7 81.141 62.7H81.411C81.531 62.7 81.621 62.66 81.681 62.58C81.761 62.5 81.851 62.37 81.951 62.19L84.621 57.3C84.801 56.98 84.991 56.75 85.191 56.61C85.411 56.47 85.681 56.4 86.001 56.4H90.861C91.241 56.4 91.511 56.49 91.671 56.67C91.851 56.83 91.941 57.1 91.941 57.48V76.92C91.941 77.3 91.851 77.58 91.671 77.76C91.511 77.92 91.241 78 90.861 78H86.241C85.861 78 85.581 77.92 85.401 77.76C85.241 77.58 85.161 77.3 85.161 76.92V66.36L83.391 69.63C83.211 69.97 82.991 70.22 82.731 70.38C82.491 70.52 82.181 70.59 81.801 70.59H80.601C80.221 70.59 79.901 70.52 79.641 70.38C79.401 70.22 79.191 69.97 79.011 69.63L77.241 66.36V76.92C77.241 77.3 77.151 77.58 76.971 77.76C76.811 77.92 76.541 78 76.161 78Z" fill="#222222"/>
<path d="M33.5563 77.76L32.4352 78.7565L32.4938 78.8225L32.5598 78.8811L33.5563 77.76ZM33.3163 73.08H34.8163V72.582L34.5184 72.1828L33.3163 73.08ZM28.7263 66.93L27.5217 67.8238L27.5242 67.8272L28.7263 66.93ZM27.7963 65.31L26.3613 65.7467L26.3699 65.7749L26.3796 65.8028L27.7963 65.31ZM27.8263 56.67L26.7657 55.6093L26.7657 55.6093L27.8263 56.67ZM34.0963 56.67L32.9752 57.6665L33.0338 57.7325L33.0998 57.7911L34.0963 56.67ZM34.3963 63.03L32.9025 63.1658V63.1658L34.3963 63.03ZM34.6363 63.66L35.9004 62.8524L35.8833 62.8257L35.8652 62.7998L34.6363 63.66ZM36.0163 65.82L37.3276 65.0915L37.3052 65.0512L37.2804 65.0124L36.0163 65.82ZM36.3163 66.21L35.3793 67.3813L35.4301 67.422L35.4843 67.4581L36.3163 66.21ZM37.4263 66.21L36.5943 64.9619L36.5401 64.998L36.4893 65.0387L37.4263 66.21ZM37.7563 65.82L36.4923 65.0124L36.4675 65.0513L36.4451 65.0915L37.7563 65.82ZM39.1363 63.66L37.9075 62.7998L37.8893 62.8257L37.8723 62.8524L39.1363 63.66ZM39.3763 63.03L40.8702 63.1658V63.1658L39.3763 63.03ZM45.7663 56.67L44.6452 57.6665L44.7038 57.7325L44.7698 57.7911L45.7663 56.67ZM45.7963 65.31L44.3796 64.8172L44.3796 64.8172L45.7963 65.31ZM44.8963 66.93L46.1033 67.8206L46.1116 67.8094L46.1196 67.7981L44.8963 66.93ZM40.3363 73.11L39.1293 72.2194L38.8363 72.6165V73.11H40.3363ZM40.0663 77.76L41.127 78.8207L41.127 78.8207L40.0663 77.76ZM39.2563 76.5H34.3963V79.5H39.2563V76.5ZM34.3963 76.5C34.3058 76.5 34.2858 76.4898 34.3134 76.4977C34.3453 76.5068 34.4431 76.5413 34.5529 76.6389L32.5598 78.8811C33.135 79.3924 33.851 79.5 34.3963 79.5V76.5ZM34.6774 76.7635C34.775 76.8732 34.8095 76.971 34.8186 77.0029C34.8265 77.0305 34.8163 77.0105 34.8163 76.92H31.8163C31.8163 77.4653 31.9239 78.1814 32.4352 78.7565L34.6774 76.7635ZM34.8163 76.92V73.08H31.8163V76.92H34.8163ZM34.5184 72.1828L29.9284 66.0328L27.5242 67.8272L32.1142 73.9772L34.5184 72.1828ZM29.931 66.0362C29.5152 65.4758 29.3027 65.0749 29.2131 64.8172L26.3796 65.8028C26.6099 66.4651 27.0175 67.1442 27.5217 67.8238L29.931 66.0362ZM29.2313 64.8733C29.1576 64.6309 29.0863 64.121 29.0863 63.24H26.0863C26.0863 64.199 26.1551 65.0691 26.3613 65.7467L29.2313 64.8733ZM29.0863 63.24V57.48H26.0863V63.24H29.0863ZM29.0863 57.48C29.0863 57.3875 29.097 57.3766 29.0845 57.4186C29.0706 57.4656 29.0219 57.5958 28.887 57.7307L26.7657 55.6093C26.1847 56.1903 26.0863 56.9569 26.0863 57.48H29.0863ZM28.887 57.7307C28.784 57.8336 28.6819 57.879 28.6303 57.8955C28.586 57.9098 28.5891 57.9 28.6663 57.9V54.9C28.0826 54.9 27.3396 55.0354 26.7657 55.6093L28.887 57.7307ZM28.6663 57.9H33.2863V54.9H28.6663V57.9ZM33.2863 57.9C33.3657 57.9 33.359 57.9104 33.2995 57.8905C33.2308 57.8676 33.0991 57.8059 32.9752 57.6665L35.2174 55.6735C34.6432 55.0274 33.8506 54.9 33.2863 54.9V57.9ZM33.0998 57.7911C32.9604 57.6672 32.8987 57.5355 32.8758 57.4668C32.856 57.4073 32.8663 57.4007 32.8663 57.48H35.8663C35.8663 56.9157 35.7389 56.1231 35.0929 55.5489L33.0998 57.7911ZM32.8663 57.48V62.4H35.8663V57.48H32.8663ZM32.8663 62.4C32.8663 62.6497 32.8788 62.9053 32.9025 63.1658L35.8902 62.8942C35.8739 62.7147 35.8663 62.5503 35.8663 62.4H32.8663ZM32.9025 63.1658C32.9486 63.6729 33.1337 64.129 33.4075 64.5202L35.8652 62.7998C35.86 62.7924 35.8655 62.7986 35.8731 62.8185C35.8809 62.8392 35.8876 62.8655 35.8902 62.8942L32.9025 63.1658ZM33.3723 64.4676L34.7523 66.6276L37.2804 65.0124L35.9004 62.8524L33.3723 64.4676ZM34.7051 66.5485C34.8491 66.8078 35.0624 67.1278 35.3793 67.3813L37.2534 65.0387C37.2875 65.066 37.3119 65.0898 37.3275 65.1061C37.3432 65.1226 37.3522 65.134 37.3553 65.1379C37.3603 65.1445 37.3501 65.1322 37.3276 65.0915L34.7051 66.5485ZM35.4843 67.4581C35.8773 67.7201 36.3139 67.83 36.7363 67.83V64.83C36.8388 64.83 36.9954 64.8599 37.1484 64.9619L35.4843 67.4581ZM36.7363 67.83H37.0363V64.83H36.7363V67.83ZM37.0363 67.83C37.45 67.83 37.9366 67.7227 38.3634 67.3813L36.4893 65.0387C36.716 64.8573 36.9427 64.83 37.0363 64.83V67.83ZM38.2584 67.4581C38.6439 67.2011 38.8979 66.8538 39.0676 66.5485L36.4451 65.0915C36.433 65.1132 36.4342 65.1067 36.4537 65.0836C36.4736 65.0601 36.5185 65.0124 36.5943 64.9619L38.2584 67.4581ZM39.0204 66.6276L40.4004 64.4676L37.8723 62.8524L36.4923 65.0124L39.0204 66.6276ZM40.3652 64.5202C40.639 64.129 40.8241 63.6729 40.8702 63.1658L37.8825 62.8942C37.8851 62.8655 37.8917 62.8392 37.8996 62.8185C37.9072 62.7986 37.9127 62.7924 37.9075 62.7998L40.3652 64.5202ZM40.8702 63.1658C40.8939 62.9053 40.9063 62.6497 40.9063 62.4H37.9063C37.9063 62.5503 37.8988 62.7147 37.8825 62.8942L40.8702 63.1658ZM40.9063 62.4V57.48H37.9063V62.4H40.9063ZM40.9063 57.48C40.9063 57.3875 40.917 57.3766 40.9045 57.4186C40.8906 57.4656 40.8419 57.5958 40.707 57.7307L38.5857 55.6093C38.0047 56.1903 37.9063 56.9569 37.9063 57.48H40.9063ZM40.707 57.7307C40.604 57.8336 40.5019 57.879 40.4503 57.8955C40.406 57.9098 40.4091 57.9 40.4863 57.9V54.9C39.9026 54.9 39.1596 55.0354 38.5857 55.6093L40.707 57.7307ZM40.4863 57.9H44.9563V54.9H40.4863V57.9ZM44.9563 57.9C45.0357 57.9 45.029 57.9104 44.9695 57.8905C44.9008 57.8676 44.7691 57.8059 44.6452 57.6665L46.8874 55.6735C46.3132 55.0274 45.5206 54.9 44.9563 54.9V57.9ZM44.7698 57.7911C44.6304 57.6672 44.5687 57.5355 44.5458 57.4668C44.526 57.4073 44.5363 57.4007 44.5363 57.48H47.5363C47.5363 56.9157 47.4089 56.1231 46.7629 55.5489L44.7698 57.7911ZM44.5363 57.48V63.24H47.5363V57.48H44.5363ZM44.5363 63.24C44.5363 64.1137 44.4552 64.5998 44.3796 64.8172L47.2131 65.8028C47.4575 65.1002 47.5363 64.2063 47.5363 63.24H44.5363ZM44.3796 64.8172C44.2845 65.0907 44.0716 65.5003 43.6731 66.0619L46.1196 67.7981C46.6011 67.1197 46.9882 66.4493 47.2131 65.8028L44.3796 64.8172ZM43.6893 66.0394L39.1293 72.2194L41.5433 74.0006L46.1033 67.8206L43.6893 66.0394ZM38.8363 73.11V76.92H41.8363V73.11H38.8363ZM38.8363 76.92C38.8363 76.9972 38.8265 77.0004 38.8408 76.956C38.8573 76.9045 38.9027 76.8023 39.0057 76.6993L41.127 78.8207C41.7009 78.2468 41.8363 77.5037 41.8363 76.92H38.8363ZM39.0057 76.6993C39.1406 76.5644 39.2707 76.5157 39.3177 76.5018C39.3597 76.4894 39.3489 76.5 39.2563 76.5V79.5C39.7794 79.5 40.546 79.4016 41.127 78.8207L39.0057 76.6993ZM54.7087 77.76L53.5876 78.7565L53.6462 78.8225L53.7121 78.8811L54.7087 77.76ZM54.4687 73.08H55.9687V72.582L55.6708 72.1828L54.4687 73.08ZM49.8787 66.93L48.674 67.8238L48.6766 67.8272L49.8787 66.93ZM48.9487 65.31L47.5137 65.7467L47.5222 65.7749L47.5319 65.8028L48.9487 65.31ZM48.9787 56.67L47.918 55.6093V55.6093L48.9787 56.67ZM55.2487 56.67L54.1276 57.6665L54.1862 57.7325L54.2521 57.7911L55.2487 56.67ZM55.5487 63.03L54.0548 63.1658V63.1658L55.5487 63.03ZM55.7887 63.66L57.0527 62.8524L57.0357 62.8257L57.0175 62.7998L55.7887 63.66ZM57.1687 65.82L58.4799 65.0915L58.4575 65.0512L58.4327 65.0124L57.1687 65.82ZM57.4687 66.21L56.5316 67.3813L56.5825 67.422L56.6366 67.4581L57.4687 66.21ZM58.5787 66.21L57.7466 64.9619L57.6925 64.998L57.6416 65.0387L58.5787 66.21ZM58.9087 65.82L57.6446 65.0124L57.6198 65.0513L57.5974 65.0915L58.9087 65.82ZM60.2887 63.66L59.0598 62.7998L59.0417 62.8257L59.0246 62.8524L60.2887 63.66ZM60.5287 63.03L62.0225 63.1658L62.0225 63.1658L60.5287 63.03ZM66.9187 56.67L65.7976 57.6665L65.8562 57.7325L65.9221 57.7911L66.9187 56.67ZM66.9487 65.31L65.5319 64.8172L65.5319 64.8172L66.9487 65.31ZM66.0487 66.93L67.2557 67.8206L67.2639 67.8094L67.2719 67.7981L66.0487 66.93ZM61.4887 73.11L60.2817 72.2194L59.9887 72.6165V73.11H61.4887ZM61.2187 77.76L62.2793 78.8207V78.8207L61.2187 77.76ZM60.4087 76.5H55.5487V79.5H60.4087V76.5ZM55.5487 76.5C55.4582 76.5 55.4381 76.4898 55.4658 76.4977C55.4976 76.5068 55.5954 76.5413 55.7052 76.6389L53.7121 78.8811C54.2873 79.3924 55.0033 79.5 55.5487 79.5V76.5ZM55.8298 76.7635C55.9274 76.8732 55.9619 76.971 55.971 77.0029C55.9788 77.0305 55.9687 77.0105 55.9687 76.92H52.9687C52.9687 77.4653 53.0763 78.1814 53.5876 78.7565L55.8298 76.7635ZM55.9687 76.92V73.08H52.9687V76.92H55.9687ZM55.6708 72.1828L51.0808 66.0328L48.6766 67.8272L53.2666 73.9772L55.6708 72.1828ZM51.0833 66.0362C50.6675 65.4758 50.4551 65.0749 50.3654 64.8172L47.5319 65.8028C47.7623 66.4651 48.1698 67.1442 48.674 67.8238L51.0833 66.0362ZM50.3837 64.8733C50.3099 64.6309 50.2387 64.121 50.2387 63.24H47.2387C47.2387 64.199 47.3074 65.0691 47.5137 65.7467L50.3837 64.8733ZM50.2387 63.24V57.48H47.2387V63.24H50.2387ZM50.2387 57.48C50.2387 57.3875 50.2493 57.3766 50.2369 57.4186C50.223 57.4656 50.1742 57.5958 50.0393 57.7307L47.918 55.6093C47.337 56.1903 47.2387 56.9569 47.2387 57.48H50.2387ZM50.0393 57.7307C49.9364 57.8336 49.8342 57.879 49.7827 57.8955C49.7383 57.9098 49.7415 57.9 49.8187 57.9V54.9C49.2349 54.9 48.4919 55.0354 47.918 55.6093L50.0393 57.7307ZM49.8187 57.9H54.4387V54.9H49.8187V57.9ZM54.4387 57.9C54.518 57.9 54.5113 57.9104 54.4518 57.8905C54.3832 57.8676 54.2514 57.8059 54.1276 57.6665L56.3698 55.6735C55.7956 55.0274 55.003 54.9 54.4387 54.9V57.9ZM54.2521 57.7911C54.1128 57.6672 54.051 57.5355 54.0281 57.4668C54.0083 57.4073 54.0187 57.4007 54.0187 57.48H57.0187C57.0187 56.9157 56.8912 56.1231 56.2452 55.5489L54.2521 57.7911ZM54.0187 57.48V62.4H57.0187V57.48H54.0187ZM54.0187 62.4C54.0187 62.6497 54.0311 62.9053 54.0548 63.1658L57.0425 62.8942C57.0262 62.7147 57.0187 62.5503 57.0187 62.4H54.0187ZM54.0548 63.1658C54.1009 63.6729 54.286 64.129 54.5598 64.5202L57.0175 62.7998C57.0123 62.7924 57.0178 62.7986 57.0254 62.8185C57.0333 62.8392 57.0399 62.8655 57.0425 62.8942L54.0548 63.1658ZM54.5246 64.4676L55.9046 66.6276L58.4327 65.0124L57.0527 62.8524L54.5246 64.4676ZM55.8574 66.5485C56.0015 66.8078 56.2148 67.1278 56.5316 67.3813L58.4057 65.0387C58.4398 65.066 58.4643 65.0898 58.4799 65.1061C58.4955 65.1226 58.5046 65.134 58.5076 65.1379C58.5127 65.1445 58.5025 65.1322 58.4799 65.0915L55.8574 66.5485ZM56.6366 67.4581C57.0296 67.7201 57.4662 67.83 57.8887 67.83V64.83C57.9911 64.83 58.1477 64.8599 58.3007 64.9619L56.6366 67.4581ZM57.8887 67.83H58.1887V64.83H57.8887V67.83ZM58.1887 67.83C58.6023 67.83 59.089 67.7227 59.5157 67.3813L57.6416 65.0387C57.8684 64.8573 58.095 64.83 58.1887 64.83V67.83ZM59.4107 67.4581C59.7962 67.2011 60.0503 66.8538 60.2199 66.5485L57.5974 65.0915C57.5854 65.1132 57.5865 65.1067 57.6061 65.0836C57.6259 65.0601 57.6709 65.0124 57.7466 64.9619L59.4107 67.4581ZM60.1727 66.6276L61.5527 64.4676L59.0246 62.8524L57.6446 65.0124L60.1727 66.6276ZM61.5175 64.5202C61.7913 64.129 61.9764 63.6729 62.0225 63.1658L59.0348 62.8942C59.0374 62.8655 59.0441 62.8392 59.0519 62.8185C59.0595 62.7986 59.065 62.7924 59.0598 62.7998L61.5175 64.5202ZM62.0225 63.1658C62.0462 62.9053 62.0587 62.6497 62.0587 62.4H59.0587C59.0587 62.5503 59.0511 62.7147 59.0348 62.8942L62.0225 63.1658ZM62.0587 62.4V57.48H59.0587V62.4H62.0587ZM62.0587 57.48C62.0587 57.3875 62.0693 57.3766 62.0569 57.4186C62.0429 57.4656 61.9942 57.5958 61.8593 57.7307L59.738 55.6093C59.157 56.1903 59.0587 56.9569 59.0587 57.48H62.0587ZM61.8593 57.7307C61.7564 57.8336 61.6542 57.879 61.6027 57.8955C61.5583 57.9098 61.5615 57.9 61.6387 57.9V54.9C61.0549 54.9 60.3119 55.0354 59.738 55.6093L61.8593 57.7307ZM61.6387 57.9H66.1087V54.9H61.6387V57.9ZM66.1087 57.9C66.188 57.9 66.1813 57.9104 66.1218 57.8905C66.0532 57.8676 65.9214 57.8059 65.7976 57.6665L68.0398 55.6735C67.4656 55.0274 66.673 54.9 66.1087 54.9V57.9ZM65.9221 57.7911C65.7828 57.6672 65.721 57.5355 65.6981 57.4668C65.6783 57.4073 65.6887 57.4007 65.6887 57.48H68.6887C68.6887 56.9157 68.5612 56.1231 67.9152 55.5489L65.9221 57.7911ZM65.6887 57.48V63.24H68.6887V57.48H65.6887ZM65.6887 63.24C65.6887 64.1137 65.6075 64.5998 65.5319 64.8172L68.3654 65.8028C68.6098 65.1002 68.6887 64.2063 68.6887 63.24H65.6887ZM65.5319 64.8172C65.4368 65.0907 65.2239 65.5003 64.8254 66.0619L67.2719 67.7981C67.7534 67.1197 68.1405 66.4493 68.3654 65.8028L65.5319 64.8172ZM64.8417 66.0394L60.2817 72.2194L62.6957 74.0006L67.2557 67.8206L64.8417 66.0394ZM59.9887 73.11V76.92H62.9887V73.11H59.9887ZM59.9887 76.92C59.9887 76.9972 59.9789 77.0004 59.9931 76.956C60.0097 76.9045 60.0551 76.8023 60.158 76.6993L62.2793 78.8207C62.8532 78.2468 62.9887 77.5037 62.9887 76.92H59.9887ZM60.158 76.6993C60.2929 76.5644 60.4231 76.5157 60.47 76.5018C60.5121 76.4894 60.5012 76.5 60.4087 76.5V79.5C60.9318 79.5 61.6984 79.4016 62.2793 78.8207L60.158 76.6993ZM70.851 77.76L69.7299 78.7565L69.7885 78.8225L69.8545 78.8811L70.851 77.76ZM70.851 56.67L69.7904 55.6093V55.6093L70.851 56.67ZM77.301 56.61L76.4408 57.8388L76.4679 57.8578L76.4957 57.8755L77.301 56.61ZM77.901 57.3L79.2142 56.5749L79.2084 56.5646L77.901 57.3ZM80.601 62.19L79.2879 62.915L79.2898 62.9185L80.601 62.19ZM80.841 62.58L79.641 63.48L79.705 63.5653L79.7804 63.6407L80.841 62.58ZM81.681 62.58L80.6204 61.5193L80.545 61.5947L80.481 61.68L81.681 62.58ZM81.951 62.19L83.2623 62.9185L83.2676 62.9088L81.951 62.19ZM84.621 57.3L83.3137 56.5646L83.309 56.5729L83.3045 56.5812L84.621 57.3ZM85.191 56.61L84.3857 55.3445L84.3579 55.3622L84.3308 55.3812L85.191 56.61ZM91.671 56.67L90.5499 57.6665L90.6085 57.7325L90.6745 57.7911L91.671 56.67ZM91.671 77.76L92.7317 78.8207V78.8207L91.671 77.76ZM85.401 77.76L84.2799 78.7565L84.3385 78.8225L84.4045 78.8811L85.401 77.76ZM85.161 66.36H86.661L83.8419 65.646L85.161 66.36ZM83.391 69.63L82.0718 68.9159L82.0653 68.9282L83.391 69.63ZM82.731 70.38L83.4868 71.6757L83.5021 71.6668L83.5172 71.6575L82.731 70.38ZM79.641 70.38L78.809 71.6281L78.8677 71.6672L78.9299 71.7007L79.641 70.38ZM79.011 69.63L80.3368 68.9281L80.3302 68.916L79.011 69.63ZM77.241 66.36L78.5602 65.646L75.741 66.36H77.241ZM76.971 77.76L78.0317 78.8207L78.0317 78.8207L76.971 77.76ZM76.161 76.5H71.691V79.5H76.161V76.5ZM71.691 76.5C71.6005 76.5 71.5805 76.4898 71.6081 76.4977C71.64 76.5068 71.7378 76.5413 71.8476 76.6389L69.8545 78.8811C70.4297 79.3924 71.1457 79.5 71.691 79.5V76.5ZM71.9721 76.7635C72.0697 76.8732 72.1042 76.971 72.1133 77.0029C72.1212 77.0305 72.111 77.0105 72.111 76.92H69.111C69.111 77.4653 69.2186 78.1814 69.7299 78.7565L71.9721 76.7635ZM72.111 76.92V57.48H69.111V76.92H72.111ZM72.111 57.48C72.111 57.3875 72.1217 57.3766 72.1092 57.4186C72.0953 57.4656 72.0466 57.5958 71.9117 57.7307L69.7904 55.6093C69.2094 56.1903 69.111 56.9569 69.111 57.48H72.111ZM71.9117 57.7307C71.8087 57.8336 71.7066 57.879 71.655 57.8955C71.6107 57.9098 71.6138 57.9 71.691 57.9V54.9C71.1073 54.9 70.3643 55.0354 69.7904 55.6093L71.9117 57.7307ZM71.691 57.9H76.521V54.9H71.691V57.9ZM76.521 57.9C76.5733 57.9 76.5844 57.9059 76.5661 57.9009C76.545 57.8953 76.4976 57.8786 76.4408 57.8388L78.1612 55.3811C77.6412 55.0172 77.054 54.9 76.521 54.9V57.9ZM76.4957 57.8755C76.4653 57.8562 76.4633 57.8478 76.4841 57.8718C76.5054 57.8963 76.5438 57.9467 76.5937 58.0354L79.2084 56.5646C78.9538 56.112 78.6024 55.6602 78.1063 55.3445L76.4957 57.8755ZM76.5879 58.025L79.2879 62.915L81.9141 61.465L79.2141 56.575L76.5879 58.025ZM79.2898 62.9185C79.3959 63.1095 79.5166 63.3141 79.641 63.48L82.041 61.68C82.0489 61.6905 82.0405 61.6803 82.0135 61.6364C81.9884 61.5955 81.9549 61.5383 81.9123 61.4615L79.2898 62.9185ZM79.7804 63.6407C80.1601 64.0204 80.65 64.2 81.141 64.2V61.2C81.2501 61.2 81.3868 61.2188 81.5331 61.2773C81.6812 61.3365 81.8054 61.4231 81.9017 61.5193L79.7804 63.6407ZM81.141 64.2H81.411V61.2H81.141V64.2ZM81.411 64.2C81.897 64.2 82.4796 64.0153 82.881 63.48L80.481 61.68C80.6021 61.5185 80.7667 61.3849 80.9593 61.2993C81.1432 61.2175 81.306 61.2 81.411 61.2V64.2ZM82.7417 63.6407C82.9699 63.4124 83.1403 63.138 83.2623 62.9185L80.6398 61.4615C80.6238 61.4902 80.6102 61.5135 80.599 61.5318C80.5877 61.5502 80.5797 61.5622 80.5752 61.5687C80.5706 61.5754 80.5711 61.5741 80.577 61.5668C80.5827 61.5599 80.597 61.5427 80.6204 61.5193L82.7417 63.6407ZM83.2676 62.9088L85.9375 58.0188L83.3045 56.5812L80.6345 61.4712L83.2676 62.9088ZM85.9284 58.0354C85.9843 57.936 86.0279 57.8756 86.055 57.8428C86.0823 57.8098 86.0831 57.8165 86.0512 57.8388L84.3308 55.3812C83.8775 55.6985 83.5532 56.1387 83.3137 56.5646L85.9284 58.0354ZM85.9963 57.8755C85.9815 57.8849 85.9678 57.8919 85.9563 57.8968C85.9449 57.9017 85.9373 57.9039 85.935 57.9045C85.9305 57.9056 85.9498 57.9 86.001 57.9V54.9C85.4607 54.9 84.8959 55.0198 84.3857 55.3445L85.9963 57.8755ZM86.001 57.9H90.861V54.9H86.001V57.9ZM90.861 57.9C90.9404 57.9 90.9337 57.9104 90.8742 57.8905C90.8055 57.8676 90.6738 57.8059 90.5499 57.6665L92.7921 55.6735C92.2179 55.0274 91.4253 54.9 90.861 54.9V57.9ZM90.6745 57.7911C90.5351 57.6672 90.4734 57.5355 90.4505 57.4668C90.4307 57.4073 90.441 57.4007 90.441 57.48H93.441C93.441 56.9157 93.3136 56.1231 92.6676 55.5489L90.6745 57.7911ZM90.441 57.48V76.92H93.441V57.48H90.441ZM90.441 76.92C90.441 76.9972 90.4312 77.0004 90.4455 76.956C90.462 76.9045 90.5074 76.8023 90.6104 76.6993L92.7317 78.8207C93.3056 78.2468 93.441 77.5037 93.441 76.92H90.441ZM90.6104 76.6993C90.7453 76.5644 90.8754 76.5157 90.9224 76.5018C90.9644 76.4894 90.9536 76.5 90.861 76.5V79.5C91.3841 79.5 92.1507 79.4016 92.7317 78.8207L90.6104 76.6993ZM90.861 76.5H86.241V79.5H90.861V76.5ZM86.241 76.5C86.1505 76.5 86.1305 76.4898 86.1581 76.4977C86.19 76.5068 86.2878 76.5413 86.3976 76.6389L84.4045 78.8811C84.9797 79.3924 85.6957 79.5 86.241 79.5V76.5ZM86.5221 76.7635C86.6197 76.8732 86.6542 76.971 86.6633 77.0029C86.6712 77.0305 86.661 77.0105 86.661 76.92H83.661C83.661 77.4653 83.7686 78.1814 84.2799 78.7565L86.5221 76.7635ZM86.661 76.92V66.36H83.661V76.92H86.661ZM83.8419 65.646L82.0719 68.916L84.7102 70.344L86.4802 67.074L83.8419 65.646ZM82.0653 68.9282C81.9784 69.0923 81.9247 69.1149 81.9449 69.1025L83.5172 71.6575C84.0573 71.3251 84.4436 70.8477 84.7167 70.3318L82.0653 68.9282ZM81.9752 69.0843C82.0051 69.0669 82.0147 69.0683 81.9881 69.0743C81.9602 69.0806 81.9007 69.09 81.801 69.09V72.09C82.353 72.09 82.9482 71.9899 83.4868 71.6757L81.9752 69.0843ZM81.801 69.09H80.601V72.09H81.801V69.09ZM80.601 69.09C80.4 69.09 80.3398 69.0526 80.3522 69.0593L78.9299 71.7007C79.4622 71.9874 80.0421 72.09 80.601 72.09V69.09ZM80.4731 69.1319C80.4981 69.1486 80.4375 69.1186 80.3367 68.9282L77.6853 70.3318C77.9445 70.8214 78.3039 71.2914 78.809 71.6281L80.4731 69.1319ZM80.3302 68.916L78.5602 65.646L75.9219 67.074L77.6919 70.344L80.3302 68.916ZM75.741 66.36V76.92H78.741V66.36H75.741ZM75.741 76.92C75.741 76.9972 75.7312 77.0004 75.7455 76.956C75.762 76.9045 75.8074 76.8023 75.9104 76.6993L78.0317 78.8207C78.6056 78.2468 78.741 77.5037 78.741 76.92H75.741ZM75.9104 76.6993C76.0453 76.5644 76.1754 76.5157 76.2224 76.5018C76.2644 76.4894 76.2536 76.5 76.161 76.5V79.5C76.6841 79.5 77.4507 79.4016 78.0317 78.8207L75.9104 76.6993Z" fill="#B9ED64"/>
<path d="M56.536 44.5H56.5354C56.7781 46.1961 58.2368 47.5 60 47.5C61.7632 47.5 63.2219 46.1961 63.4646 44.5H63.464H63.4579H63.4518H63.4457H63.4396H63.4334H63.4272H63.4209H63.4146H63.4083H63.402H63.3956H63.3892H63.3828H63.3763H63.3698H63.3633H63.3568H63.3502H63.3436H63.3369H63.3303H63.3236H63.3169H63.3101H63.3033H63.2965H63.2897H63.2828H63.2759H63.269H63.262H63.255H63.248H63.241H63.2339H63.2268H63.2197H63.2125H63.2053H63.1981H63.1909H63.1836H63.1763H63.169H63.1616H63.1543H63.1469H63.1394H63.132H63.1245H63.1169H63.1094H63.1018H63.0942H63.0866H63.0789H63.0713H63.0635H63.0558H63.048H63.0403H63.0324H63.0246H63.0167H63.0088H63.0009H62.9929H62.985H62.977H62.9689H62.9609H62.9528H62.9447H62.9365H62.9284H62.9202H62.912H62.9037H62.8955H62.8872H62.8789H62.8705H62.8622H62.8538H62.8453H62.8369H62.8284H62.8199H62.8114H62.8029H62.7943H62.7857H62.7771H62.7684H62.7598H62.7511H62.7423H62.7336H62.7248H62.716H62.7072H62.6984H62.6895H62.6806H62.6717H62.6628H62.6538H62.6448H62.6358H62.6268H62.6177H62.6086H62.5995H62.5904H62.5812H62.572H62.5628H62.5536H62.5444H62.5351H62.5258H62.5165H62.5071H62.4978H62.4884H62.479H62.4695H62.4601H62.4506H62.4411H62.4316H62.422H62.4125H62.4029H62.3933H62.3836H62.374H62.3643H62.3546H62.3449H62.3351H62.3253H62.3155H62.3057H62.2959H62.286H62.2762H62.2663H62.2563H62.2464H62.2364H62.2265H62.2164H62.2064H62.1964H62.1863H62.1762H62.1661H62.156H62.1458H62.1356H62.1254H62.1152H62.105H62.0947H62.0844H62.0741H62.0638H62.0535H62.0431H62.0327H62.0223H62.0119H62.0015H61.991H61.9805H61.97H61.9595H61.949H61.9384H61.9279H61.9173H61.9066H61.896H61.8853H61.8747H61.864H61.8533H61.8425H61.8318H61.821H61.8102H61.7994H61.7886H61.7777H61.7669H61.756H61.7451H61.7342H61.7232H61.7123H61.7013H61.6903H61.6793H61.6683H61.6572H61.6461H61.6351H61.624H61.6128H61.6017H61.5905H61.5794H61.5682H61.557H61.5458H61.5345H61.5233H61.512H61.5007H61.4894H61.478H61.4667H61.4553H61.444H61.4326H61.4212H61.4097H61.3983H61.3868H61.3753H61.3638H61.3523H61.3408H61.3293H61.3177H61.3061H61.2945H61.2829H61.2713H61.2597H61.248H61.2363H61.2246H61.2129H61.2012H61.1895H61.1777H61.166H61.1542H61.1424H61.1306H61.1187H61.1069H61.095H61.0832H61.0713H61.0594H61.0475H61.0355H61.0236H61.0116H60.9997H60.9877H60.9757H60.9637H60.9516H60.9396H60.9275H60.9154H60.9033H60.8912H60.8791H60.867H60.8549H60.8427H60.8305H60.8183H60.8061H60.7939H60.7817H60.7695H60.7572H60.7449H60.7327H60.7204H60.7081H60.6957H60.6834H60.6711H60.6587H60.6463H60.634H60.6216H60.6092H60.5967H60.5843H60.5719H60.5594H60.5469H60.5345H60.522H60.5095H60.4969H60.4844H60.4719H60.4593H60.4467H60.4342H60.4216H60.409H60.3964H60.3837H60.3711H60.3585H60.3458H60.3331H60.3205H60.3078H60.2951H60.2823H60.2696H60.2569H60.2441H60.2314H60.2186H60.2058H60.1931H60.1803H60.1674H60.1546H60.1418H60.129H60.1161H60.1032H60.0904H60.0775H60.0646H60.0517H60.0388H60.0259H60.0129H60H59.9871H59.9741H59.9612H59.9483H59.9354H59.9225H59.9096H59.8968H59.8839H59.871H59.8582H59.8454H59.8326H59.8197H59.8069H59.7942H59.7814H59.7686H59.7559H59.7431H59.7304H59.7177H59.7049H59.6922H59.6795H59.6669H59.6542H59.6415H59.6289H59.6163H59.6036H59.591H59.5784H59.5658H59.5533H59.5407H59.5281H59.5156H59.5031H59.4905H59.478H59.4655H59.4531H59.4406H59.4281H59.4157H59.4033H59.3908H59.3784H59.366H59.3537H59.3413H59.3289H59.3166H59.3043H59.2919H59.2796H59.2673H59.2551H59.2428H59.2305H59.2183H59.2061H59.1939H59.1817H59.1695H59.1573H59.1451H59.133H59.1209H59.1088H59.0967H59.0846H59.0725H59.0604H59.0484H59.0363H59.0243H59.0123H59.0003H58.9884H58.9764H58.9645H58.9525H58.9406H58.9287H58.9168H58.905H58.8931H58.8813H58.8694H58.8576H58.8458H58.834H58.8223H58.8105H58.7988H58.7871H58.7754H58.7637H58.752H58.7403H58.7287H58.7171H58.7055H58.6939H58.6823H58.6707H58.6592H58.6477H58.6362H58.6247H58.6132H58.6017H58.5903H58.5788H58.5674H58.556H58.5447H58.5333H58.522H58.5106H58.4993H58.488H58.4767H58.4655H58.4542H58.443H58.4318H58.4206H58.4094H58.3983H58.3872H58.376H58.3649H58.3539H58.3428H58.3317H58.3207H58.3097H58.2987H58.2877H58.2768H58.2658H58.2549H58.244H58.2331H58.2223H58.2114H58.2006H58.1898H58.179H58.1682H58.1575H58.1467H58.136H58.1253H58.1147H58.104H58.0934H58.0827H58.0721H58.0616H58.051H58.0405H58.03H58.0195H58.009H57.9985H57.9881H57.9777H57.9673H57.9569H57.9465H57.9362H57.9259H57.9156H57.9053H57.895H57.8848H57.8746H57.8644H57.8542H57.844H57.8339H57.8238H57.8137H57.8036H57.7936H57.7836H57.7735H57.7636H57.7536H57.7437H57.7337H57.7238H57.714H57.7041H57.6943H57.6845H57.6747H57.6649H57.6551H57.6454H57.6357H57.626H57.6164H57.6067H57.5971H57.5875H57.578H57.5684H57.5589H57.5494H57.5399H57.5305H57.521H57.5116H57.5022H57.4929H57.4835H57.4742H57.4649H57.4556H57.4464H57.4372H57.428H57.4188H57.4096H57.4005H57.3914H57.3823H57.3732H57.3642H57.3552H57.3462H57.3372H57.3283H57.3194H57.3105H57.3016H57.2928H57.284H57.2752H57.2664H57.2577H57.2489H57.2402H57.2316H57.2229H57.2143H57.2057H57.1971H57.1886H57.1801H57.1716H57.1631H57.1547H57.1462H57.1378H57.1295H57.1211H57.1128H57.1045H57.0963H57.088H57.0798H57.0716H57.0635H57.0553H57.0472H57.0391H57.0311H57.023H57.015H57.0071H56.9991H56.9912H56.9833H56.9754H56.9676H56.9597H56.952H56.9442H56.9365H56.9287H56.9211H56.9134H56.9058H56.8982H56.8906H56.8831H56.8755H56.868H56.8606H56.8531H56.8457H56.8384H56.831H56.8237H56.8164H56.8091H56.8019H56.7947H56.7875H56.7803H56.7732H56.7661H56.759H56.752H56.745H56.738H56.731H56.7241H56.7172H56.7103H56.7035H56.6967H56.6899H56.6831H56.6764H56.6697H56.6631H56.6564H56.6498H56.6432H56.6367H56.6302H56.6237H56.6172H56.6108H56.6044H56.598H56.5917H56.5854H56.5791H56.5728H56.5666H56.5604H56.5543H56.5482H56.5421H56.536Z" fill="#222222" stroke="#B9ED64"/>
<rect x="45.5" y="37.5" width="29" height="7" rx="3.5" fill="#222222" stroke="#B9ED64"/>
<circle cx="50" cy="41" r="1" fill="#B9ED64"/>
<circle cx="55" cy="41" r="1" fill="#B9ED64"/>
<circle cx="60" cy="41" r="1" fill="#B9ED64"/>
<circle cx="65" cy="41" r="1" fill="#B9ED64"/>
<circle cx="70" cy="41" r="1" fill="#B9ED64"/>
<path d="M50.5156 37.5H50.5129C50.7729 32.4857 54.921 28.5 60 28.5C65.079 28.5 69.2271 32.4857 69.4871 37.5H69.4844H69.4746H69.4647H69.4548H69.4447H69.4346H69.4244H69.4141H69.4037H69.3932H69.3826H69.372H69.3613H69.3505H69.3396H69.3286H69.3175H69.3064H69.2951H69.2838H69.2724H69.2609H69.2494H69.2377H69.226H69.2141H69.2022H69.1903H69.1782H69.166H69.1538H69.1415H69.1291H69.1166H69.1041H69.0914H69.0787H69.0659H69.053H69.0401H69.027H69.0139H69.0007H68.9874H68.974H68.9606H68.9471H68.9335H68.9198H68.906H68.8922H68.8782H68.8642H68.8502H68.836H68.8218H68.8074H68.7931H68.7786H68.764H68.7494H68.7347H68.7199H68.7051H68.6901H68.6751H68.66H68.6449H68.6296H68.6143H68.5989H68.5834H68.5679H68.5523H68.5366H68.5208H68.5049H68.489H68.473H68.457H68.4408H68.4246H68.4083H68.3919H68.3755H68.359H68.3424H68.3257H68.309H68.2922H68.2753H68.2583H68.2413H68.2242H68.207H68.1898H68.1724H68.1551H68.1376H68.1201H68.1024H68.0848H68.067H68.0492H68.0313H68.0134H67.9953H67.9772H67.959H67.9408H67.9225H67.9041H67.8857H67.8671H67.8485H67.8299H67.8112H67.7924H67.7735H67.7546H67.7356H67.7165H67.6973H67.6781H67.6589H67.6395H67.6201H67.6006H67.5811H67.5615H67.5418H67.522H67.5022H67.4824H67.4624H67.4424H67.4223H67.4022H67.382H67.3617H67.3414H67.321H67.3005H67.2799H67.2593H67.2387H67.218H67.1972H67.1763H67.1554H67.1344H67.1134H67.0922H67.0711H67.0498H67.0285H67.0072H66.9857H66.9642H66.9427H66.9211H66.8994H66.8777H66.8559H66.834H66.8121H66.7901H66.768H66.7459H66.7238H66.7015H66.6793H66.6569H66.6345H66.612H66.5895H66.5669H66.5443H66.5215H66.4988H66.476H66.4531H66.4301H66.4071H66.3841H66.3609H66.3377H66.3145H66.2912H66.2679H66.2444H66.221H66.1975H66.1739H66.1502H66.1265H66.1028H66.079H66.0551H66.0312H66.0072H65.9832H65.9591H65.9349H65.9107H65.8865H65.8621H65.8378H65.8134H65.7889H65.7643H65.7398H65.7151H65.6904H65.6657H65.6409H65.616H65.5911H65.5661H65.5411H65.516H65.4909H65.4657H65.4405H65.4152H65.3899H65.3645H65.3391H65.3136H65.288H65.2625H65.2368H65.2111H65.1854H65.1596H65.1337H65.1078H65.0819H65.0559H65.0298H65.0037H64.9776H64.9514H64.9251H64.8988H64.8725H64.8461H64.8196H64.7931H64.7666H64.74H64.7134H64.6867H64.6599H64.6332H64.6063H64.5794H64.5525H64.5255H64.4985H64.4715H64.4443H64.4172H64.39H64.3627H64.3354H64.3081H64.2807H64.2532H64.2258H64.1982H64.1706H64.143H64.1154H64.0877H64.0599H64.0321H64.0043H63.9764H63.9484H63.9205H63.8925H63.8644H63.8363H63.8081H63.7799H63.7517H63.7234H63.6951H63.6667H63.6383H63.6099H63.5814H63.5529H63.5243H63.4957H63.467H63.4383H63.4096H63.3808H63.352H63.3231H63.2942H63.2653H63.2363H63.2073H63.1782H63.1491H63.12H63.0908H63.0616H63.0323H63.003H62.9737H62.9443H62.9149H62.8855H62.856H62.8264H62.7969H62.7673H62.7376H62.7079H62.6782H62.6485H62.6187H62.5889H62.559H62.5291H62.4992H62.4692H62.4392H62.4091H62.379H62.3489H62.3188H62.2886H62.2584H62.2281H62.1978H62.1675H62.1371H62.1067H62.0763H62.0458H62.0153H61.9848H61.9543H61.9237H61.893H61.8624H61.8317H61.8009H61.7702H61.7394H61.7085H61.6777H61.6468H61.6159H61.5849H61.5539H61.5229H61.4919H61.4608H61.4297H61.3985H61.3673H61.3361H61.3049H61.2736H61.2423H61.211H61.1797H61.1483H61.1169H61.0854H61.0539H61.0224H60.9909H60.9594H60.9278H60.8961H60.8645H60.8328H60.8011H60.7694H60.7376H60.7059H60.6741H60.6422H60.6104H60.5785H60.5465H60.5146H60.4826H60.4506H60.4186H60.3866H60.3545H60.3224H60.2903H60.2581H60.2259H60.1937H60.1615H60.1292H60.097H60.0647H60.0323H60H59.9677H59.9353H59.903H59.8708H59.8385H59.8063H59.7741H59.7419H59.7097H59.6776H59.6455H59.6134H59.5814H59.5494H59.5174H59.4854H59.4535H59.4215H59.3896H59.3578H59.3259H59.2941H59.2624H59.2306H59.1989H59.1672H59.1355H59.1039H59.0722H59.0406H59.0091H58.9776H58.9461H58.9146H58.8831H58.8517H58.8203H58.789H58.7577H58.7264H58.6951H58.6639H58.6327H58.6015H58.5703H58.5392H58.5081H58.4771H58.4461H58.4151H58.3841H58.3532H58.3223H58.2915H58.2606H58.2298H58.1991H58.1683H58.1376H58.107H58.0763H58.0457H58.0152H57.9847H57.9542H57.9237H57.8933H57.8629H57.8325H57.8022H57.7719H57.7416H57.7114H57.6812H57.6511H57.621H57.5909H57.5608H57.5308H57.5008H57.4709H57.441H57.4111H57.3813H57.3515H57.3218H57.2921H57.2624H57.2327H57.2031H57.1736H57.144H57.1145H57.0851H57.0557H57.0263H56.997H56.9677H56.9384H56.9092H56.88H56.8509H56.8218H56.7927H56.7637H56.7347H56.7058H56.6769H56.648H56.6192H56.5904H56.5617H56.533H56.5043H56.4757H56.4471H56.4186H56.3901H56.3617H56.3333H56.3049H56.2766H56.2483H56.2201H56.1919H56.1637H56.1356H56.1075H56.0795H56.0516H56.0236H55.9957H55.9679H55.9401H55.9123H55.8846H55.857H55.8294H55.8018H55.7742H55.7468H55.7193H55.6919H55.6646H55.6373H55.61H55.5828H55.5557H55.5285H55.5015H55.4745H55.4475H55.4206H55.3937H55.3668H55.3401H55.3133H55.2866H55.26H55.2334H55.2069H55.1804H55.1539H55.1275H55.1012H55.0749H55.0486H55.0224H54.9963H54.9702H54.9441H54.9181H54.8922H54.8663H54.8404H54.8146H54.7889H54.7632H54.7375H54.712H54.6864H54.6609H54.6355H54.6101H54.5848H54.5595H54.5343H54.5091H54.484H54.4589H54.4339H54.4089H54.384H54.3591H54.3343H54.3096H54.2849H54.2602H54.2357H54.2111H54.1866H54.1622H54.1379H54.1135H54.0893H54.0651H54.0409H54.0168H53.9928H53.9688H53.9449H53.921H53.8972H53.8735H53.8498H53.8261H53.8025H53.779H53.7556H53.7321H53.7088H53.6855H53.6623H53.6391H53.6159H53.5929H53.5699H53.5469H53.524H53.5012H53.4785H53.4557H53.4331H53.4105H53.388H53.3655H53.3431H53.3207H53.2985H53.2762H53.2541H53.232H53.2099H53.1879H53.166H53.1441H53.1223H53.1006H53.0789H53.0573H53.0358H53.0143H52.9928H52.9715H52.9502H52.9289H52.9078H52.8866H52.8656H52.8446H52.8237H52.8028H52.782H52.7613H52.7406H52.7201H52.6995H52.679H52.6586H52.6383H52.618H52.5978H52.5777H52.5576H52.5376H52.5176H52.4978H52.478H52.4582H52.4385H52.4189H52.3994H52.3799H52.3605H52.3411H52.3219H52.3027H52.2835H52.2644H52.2454H52.2265H52.2076H52.1888H52.1701H52.1515H52.1329H52.1143H52.0959H52.0775H52.0592H52.041H52.0228H52.0047H51.9866H51.9687H51.9508H51.933H51.9152H51.8975H51.8799H51.8624H51.8449H51.8276H51.8102H51.793H51.7758H51.7587H51.7417H51.7247H51.7078H51.691H51.6743H51.6576H51.641H51.6245H51.6081H51.5917H51.5754H51.5592H51.543H51.527H51.511H51.4951H51.4792H51.4634H51.4477H51.4321H51.4166H51.4011H51.3857H51.3704H51.3551H51.34H51.3249H51.3099H51.2949H51.2801H51.2653H51.2506H51.236H51.2214H51.2069H51.1926H51.1782H51.164H51.1498H51.1358H51.1218H51.1078H51.094H51.0802H51.0665H51.0529H51.0394H51.026H51.0126H50.9993H50.9861H50.973H50.9599H50.947H50.9341H50.9213H50.9086H50.8959H50.8834H50.8709H50.8585H50.8462H50.834H50.8218H50.8097H50.7978H50.7858H50.774H50.7623H50.7506H50.7391H50.7276H50.7162H50.7049H50.6936H50.6825H50.6714H50.6604H50.6495H50.6387H50.628H50.6174H50.6068H50.5963H50.5859H50.5756H50.5654H50.5553H50.5452H50.5353H50.5254H50.5156Z" fill="#222222" stroke="#B9ED64"/>
<path d="M56 36C53.2386 36 53 36 53 36C53 33.2386 55.2386 31 58 31C58 31 56 33.2386 56 36Z" fill="white"/>
<defs>
<linearGradient id="paint0_linear_324_6" x1="59.9355" y1="74" x2="59.9355" y2="84" gradientUnits="userSpaceOnUse">
<stop stop-color="#B9ED64" stop-opacity="0.25"/>
<stop offset="1" stop-color="#B9ED64" stop-opacity="0.5"/>
</linearGradient>
</defs>
</svg>
