<svg width="300" height="202" viewBox="0 0 300 202" fill="none" xmlns="http://www.w3.org/2000/svg">
<path d="M109.156 156.127H109.151C111.446 172.177 125.249 184.514 141.933 184.514C158.617 184.514 172.42 172.177 174.716 156.127H174.71H174.653H174.595H174.537H174.479H174.421H174.362H174.303H174.243H174.183H174.123H174.063H174.003H173.942H173.881H173.819H173.758H173.696H173.633H173.571H173.508H173.445H173.382H173.318H173.254H173.19H173.126H173.061H172.996H172.931H172.865H172.799H172.733H172.667H172.6H172.533H172.466H172.399H172.331H172.263H172.195H172.126H172.057H171.988H171.919H171.849H171.78H171.709H171.639H171.568H171.498H171.426H171.355H171.283H171.211H171.139H171.067H170.994H170.921H170.848H170.774H170.701H170.627H170.553H170.478H170.403H170.328H170.253H170.178H170.102H170.026H169.95H169.873H169.796H169.719H169.642H169.565H169.487H169.409H169.331H169.252H169.174H169.095H169.016H168.936H168.856H168.777H168.696H168.616H168.535H168.455H168.373H168.292H168.211H168.129H168.047H167.964H167.882H167.799H167.716H167.633H167.549H167.466H167.382H167.298H167.213H167.129H167.044H166.959H166.874H166.788H166.702H166.617H166.53H166.444H166.357H166.27H166.183H166.096H166.009H165.921H165.833H165.745H165.656H165.568H165.479H165.39H165.301H165.211H165.121H165.031H164.941H164.851H164.76H164.67H164.579H164.488H164.396H164.305H164.213H164.121H164.028H163.936H163.843H163.751H163.657H163.564H163.471H163.377H163.283H163.189H163.095H163H162.906H162.811H162.716H162.62H162.525H162.429H162.333H162.237H162.141H162.044H161.948H161.851H161.754H161.657H161.559H161.462H161.364H161.266H161.167H161.069H160.97H160.872H160.773H160.674H160.574H160.475H160.375H160.275H160.175H160.075H159.974H159.874H159.773H159.672H159.57H159.469H159.368H159.266H159.164H159.062H158.96H158.857H158.754H158.652H158.549H158.446H158.342H158.239H158.135H158.031H157.927H157.823H157.719H157.614H157.509H157.404H157.299H157.194H157.089H156.983H156.878H156.772H156.666H156.559H156.453H156.346H156.24H156.133H156.026H155.919H155.811H155.704H155.596H155.488H155.38H155.272H155.164H155.055H154.947H154.838H154.729H154.62H154.511H154.401H154.292H154.182H154.072H153.962H153.852H153.742H153.631H153.521H153.41H153.299H153.188H153.077H152.966H152.854H152.743H152.631H152.519H152.407H152.295H152.182H152.07H151.957H151.845H151.732H151.619H151.505H151.392H151.279H151.165H151.051H150.938H150.824H150.709H150.595H150.481H150.366H150.252H150.137H150.022H149.907H149.792H149.676H149.561H149.445H149.33H149.214H149.098H148.982H148.866H148.749H148.633H148.516H148.4H148.283H148.166H148.049H147.932H147.814H147.697H147.58H147.462H147.344H147.226H147.108H146.99H146.872H146.754H146.635H146.517H146.398H146.279H146.16H146.041H145.922H145.803H145.684H145.564H145.445H145.325H145.205H145.085H144.965H144.845H144.725H144.605H144.484H144.364H144.243H144.122H144.002H143.881H143.76H143.639H143.517H143.396H143.275H143.153H143.032H142.91H142.788H142.666H142.544H142.422H142.3H142.178H142.055H141.933H141.811H141.688H141.566H141.444H141.322H141.2H141.078H140.956H140.834H140.713H140.591H140.47H140.349H140.227H140.106H139.985H139.864H139.744H139.623H139.502H139.382H139.261H139.141H139.021H138.901H138.781H138.661H138.541H138.422H138.302H138.183H138.063H137.944H137.825H137.706H137.587H137.468H137.349H137.231H137.112H136.994H136.876H136.758H136.64H136.522H136.404H136.287H136.169H136.052H135.934H135.817H135.7H135.583H135.466H135.35H135.233H135.117H135H134.884H134.768H134.652H134.536H134.421H134.305H134.19H134.074H133.959H133.844H133.729H133.614H133.5H133.385H133.271H133.157H133.043H132.929H132.815H132.701H132.587H132.474H132.361H132.248H132.134H132.022H131.909H131.796H131.684H131.571H131.459H131.347H131.235H131.124H131.012H130.9H130.789H130.678H130.567H130.456H130.345H130.235H130.124H130.014H129.904H129.794H129.684H129.574H129.465H129.355H129.246H129.137H129.028H128.919H128.811H128.702H128.594H128.486H128.378H128.27H128.162H128.055H127.947H127.84H127.733H127.626H127.52H127.413H127.307H127.2H127.094H126.989H126.883H126.777H126.672H126.567H126.462H126.357H126.252H126.148H126.043H125.939H125.835H125.731H125.627H125.524H125.421H125.317H125.214H125.112H125.009H124.907H124.804H124.702H124.6H124.499H124.397H124.296H124.194H124.093H123.993H123.892H123.791H123.691H123.591H123.491H123.391H123.292H123.193H123.093H122.994H122.896H122.797H122.699H122.6H122.502H122.405H122.307H122.209H122.112H122.015H121.918H121.822H121.725H121.629H121.533H121.437H121.341H121.246H121.15H121.055H120.96H120.866H120.771H120.677H120.583H120.489H120.395H120.302H120.209H120.116H120.023H119.93H119.838H119.745H119.653H119.562H119.47H119.379H119.287H119.196H119.106H119.015H118.925H118.835H118.745H118.655H118.566H118.476H118.387H118.298H118.21H118.121H118.033H117.945H117.858H117.77H117.683H117.596H117.509H117.422H117.336H117.25H117.164H117.078H116.992H116.907H116.822H116.737H116.653H116.568H116.484H116.4H116.317H116.233H116.15H116.067H115.984H115.902H115.819H115.737H115.656H115.574H115.493H115.412H115.331H115.25H115.17H115.09H115.01H114.93H114.851H114.771H114.692H114.614H114.535H114.457H114.379H114.301H114.224H114.147H114.07H113.993H113.916H113.84H113.764H113.689H113.613H113.538H113.463H113.388H113.314H113.239H113.165H113.092H113.018H112.945H112.872H112.799H112.727H112.655H112.583H112.511H112.44H112.369H112.298H112.227H112.157H112.087H112.017H111.947H111.878H111.809H111.74H111.672H111.603H111.535H111.468H111.4H111.333H111.266H111.199H111.133H111.067H111.001H110.936H110.87H110.805H110.741H110.676H110.612H110.548H110.484H110.421H110.358H110.295H110.233H110.17H110.108H110.047H109.985H109.924H109.863H109.803H109.743H109.683H109.623H109.564H109.504H109.446H109.387H109.329H109.271H109.213H109.156Z" fill="#222222" stroke="#B9ED64" stroke-width="9.46227"/>
<rect x="4.73113" y="89.891" width="274.406" height="66.2359" rx="33.1179" fill="#222222" stroke="#B9ED64" stroke-width="9.46227"/>
<circle cx="47.3121" cy="123.01" r="9.46227" fill="#B9ED64"/>
<circle cx="94.6236" cy="123.01" r="9.46227" fill="#B9ED64"/>
<circle cx="141.935" cy="123.01" r="9.46227" fill="#B9ED64"/>
<circle cx="189.246" cy="123.01" r="9.46227" fill="#B9ED64"/>
<circle cx="236.558" cy="123.01" r="9.46227" fill="#B9ED64"/>
<path d="M52.1904 89.8915H52.1648C54.625 42.4451 93.8752 4.73113 141.934 4.73113C189.993 4.73113 229.243 42.4451 231.703 89.8915H231.678H231.585H231.492H231.397H231.302H231.206H231.11H231.012H230.914H230.815H230.715H230.614H230.513H230.411H230.307H230.203H230.099H229.993H229.887H229.78H229.672H229.563H229.454H229.344H229.233H229.121H229.008H228.895H228.781H228.666H228.55H228.433H228.316H228.198H228.079H227.96H227.839H227.718H227.596H227.473H227.35H227.226H227.101H226.975H226.849H226.721H226.593H226.465H226.335H226.205H226.074H225.942H225.81H225.677H225.543H225.408H225.272H225.136H224.999H224.862H224.723H224.584H224.444H224.304H224.162H224.02H223.877H223.734H223.59H223.445H223.299H223.153H223.006H222.858H222.709H222.56H222.41H222.259H222.108H221.956H221.803H221.65H221.495H221.341H221.185H221.029H220.872H220.714H220.556H220.397H220.237H220.076H219.915H219.753H219.591H219.428H219.264H219.099H218.934H218.768H218.602H218.434H218.266H218.098H217.928H217.758H217.588H217.417H217.245H217.072H216.899H216.725H216.55H216.375H216.199H216.022H215.845H215.667H215.489H215.31H215.13H214.949H214.768H214.587H214.404H214.221H214.037H213.853H213.668H213.483H213.296H213.11H212.922H212.734H212.545H212.356H212.166H211.975H211.784H211.592H211.4H211.207H211.013H210.819H210.624H210.428H210.232H210.035H209.838H209.64H209.442H209.242H209.043H208.842H208.641H208.44H208.238H208.035H207.832H207.628H207.423H207.218H207.012H206.806H206.599H206.392H206.184H205.975H205.766H205.556H205.346H205.135H204.923H204.711H204.499H204.286H204.072H203.857H203.643H203.427H203.211H202.995H202.777H202.56H202.342H202.123H201.903H201.684H201.463H201.242H201.021H200.799H200.576H200.353H200.129H199.905H199.68H199.455H199.229H199.003H198.776H198.548H198.32H198.092H197.863H197.633H197.403H197.173H196.941H196.71H196.478H196.245H196.012H195.778H195.544H195.309H195.074H194.838H194.602H194.365H194.128H193.89H193.652H193.414H193.174H192.935H192.694H192.454H192.213H191.971H191.729H191.486H191.243H190.999H190.755H190.511H190.265H190.02H189.774H189.527H189.28H189.033H188.785H188.537H188.288H188.039H187.789H187.539H187.288H187.037H186.785H186.533H186.281H186.028H185.774H185.52H185.266H185.011H184.756H184.5H184.244H183.987H183.73H183.473H183.215H182.957H182.698H182.439H182.179H181.919H181.659H181.398H181.136H180.875H180.612H180.35H180.087H179.823H179.559H179.295H179.03H178.765H178.5H178.234H177.968H177.701H177.434H177.166H176.898H176.63H176.361H176.092H175.822H175.552L175.282 89.8915H175.011H174.74H174.468H174.196H173.924H173.651H173.378H173.105H172.831H172.557H172.282H172.007H171.732H171.456H171.18H170.904H170.627H170.349H170.072H169.794H169.516H169.237H168.958H168.678H168.399H168.119H167.838H167.557H167.276H166.995H166.713H166.43H166.148H165.865H165.582H165.298H165.014H164.73H164.445H164.16H163.875H163.589H163.303H163.017H162.73H162.443H162.156H161.868H161.581H161.292H161.004H160.715H160.426H160.136H159.846H159.556H159.266H158.975H158.684H158.392H158.101H157.809H157.516H157.224H156.931H156.638H156.344H156.05H155.756H155.462H155.167H154.872H154.577H154.281H153.985H153.689H153.393H153.096H152.799H152.502H152.204H151.907H151.609H151.31H151.012H150.713H150.414H150.114H149.814H149.514H149.214H148.914H148.613H148.312H148.011H147.709H147.408H147.105H146.803H146.501H146.198H145.895H145.592H145.288H144.984H144.68H144.376H144.072H143.767H143.462H143.157H142.852H142.546H142.24H141.934H141.628H141.322H141.016H140.711H140.406H140.101H139.796H139.492H139.187H138.883H138.58H138.276H137.973H137.67H137.367H137.065H136.762H136.46H136.159H135.857H135.556H135.255H134.954H134.654H134.353H134.053H133.754H133.454H133.155H132.856H132.558H132.259H131.961H131.663H131.366H131.069H130.772H130.475H130.179H129.882H129.587H129.291H128.996H128.701H128.406H128.112H127.818H127.524H127.23H126.937H126.644H126.352H126.059H125.767H125.476H125.184H124.893H124.602H124.312H124.022H123.732H123.442H123.153H122.864H122.576H122.287H121.999H121.712H121.425H121.138H120.851H120.565H120.279H119.993H119.708H119.423H119.138H118.854H118.57H118.286H118.003H117.72H117.438H117.155H116.873H116.592H116.311H116.03H115.749H115.469H115.189H114.91H114.631H114.352H114.074H113.796H113.518H113.241H112.964H112.688H112.412H112.136H111.861H111.586H111.311H111.037H110.763H110.49H110.216H109.944H109.671H109.4H109.128H108.857H108.586H108.316H108.046H107.776H107.507H107.238H106.97H106.702H106.434H106.167H105.9H105.634H105.368H105.103H104.837H104.573H104.308H104.045H103.781H103.518H103.255H102.993H102.731H102.47H102.209H101.949H101.689H101.429H101.17H100.911H100.653H100.395H100.137H99.8804H99.6239H99.3677H99.1121H98.8568H98.602H98.3477H98.0938H97.8404H97.5874H97.3349H97.0828H96.8312H96.58H96.3293H96.0791H95.8293H95.58H95.3311H95.0828H94.8349H94.5874H94.3405H94.094H93.8479H93.6024H93.3573H93.1128H92.8687H92.625H92.3819H92.1392H91.8971H91.6554H91.4142H91.1735H90.9333H90.6936H90.4544H90.2156H89.9774H89.7397H89.5025H89.2657H89.0295H88.7938H88.5586H88.3239H88.0897H87.856H87.6229H87.3902H87.1581H86.9264H86.6953H86.4648H86.2347H86.0052H85.7761H85.5477H85.3197H85.0923H84.8654H84.639H84.4131H84.1878H83.9631H83.7388H83.5151H83.292H83.0694H82.8473H82.6258H82.4048H82.1844H81.9645H81.7451H81.5264H81.3081H81.0905H80.8733H80.6568H80.4408H80.2253H80.0105H79.7961H79.5824H79.3692H79.1566H78.9445H78.733H78.5221H78.3118H78.102H77.8929H77.6843H77.4762H77.2688H77.0619H76.8556H76.6499H76.4448H76.2403H76.0364H75.833H75.6303H75.4281H75.2266H75.0256H74.8253H74.6255H74.4263H74.2278H74.0298H73.8325H73.6357H73.4396H73.244H73.0491H72.8548H72.6611H72.4681H72.2756H72.0838H71.8925H71.7019H71.512H71.3226H71.1339H70.9458H70.7583H70.5715H70.3853H70.1997H70.0147H69.8304H69.6468H69.4637H69.2814H69.0996H68.9185H68.738H68.5582H68.3791H68.2005H68.0227H67.8455H67.6689H67.493H67.3177H67.1431H66.9692H66.7959H66.6233H66.4514H66.2801H66.1095H65.9395H65.7702H65.6016H65.4337H65.2664H65.0998H64.9339H64.7687H64.6041H64.4402H64.277H64.1145H63.9527H63.7916H63.6311H63.4713H63.3123H63.1539H62.9962H62.8392H62.6829H62.5273H62.3724H62.2183H62.0648H61.912H61.7599H61.6085H61.4579H61.3079H61.1587H61.0101H60.8623H60.7152H60.5688H60.4232H60.2782H60.134H59.9905H59.8477H59.7056H59.5643H59.4237H59.2839H59.1447H59.0063H58.8687H58.7317H58.5955H58.4601H58.3254H58.1914H58.0582H57.9257H57.7939H57.6629H57.5327H57.4032H57.2745H57.1465H57.0193H56.8928H56.7671H56.6421H56.5179H56.3945H56.2718H56.1499H56.0287H55.9084H55.7888H55.6699H55.5519H55.4346H55.3181H55.2023H55.0874H54.9732H54.8598H54.7472H54.6354H54.5243H54.4141H54.3046H54.1959H54.088H53.9809H53.8746H53.7691H53.6644H53.5605H53.4574H53.3551H53.2536H53.1529H53.053H52.9539H52.8556H52.7581H52.6614H52.5656H52.4706H52.3763H52.2829H52.1904Z" fill="#222222" stroke="#B9ED64" stroke-width="9.46227"/>
<path d="M104.085 75.6978C77.9552 75.6978 75.6978 75.6978 75.6978 75.6978C75.6978 49.5685 96.8798 28.3865 123.009 28.3865C123.009 28.3865 104.085 49.5685 104.085 75.6978Z" fill="white"/>
</svg>
