<svg width="105" height="31" viewBox="0 0 105 31" fill="none" xmlns="http://www.w3.org/2000/svg">
<path d="M57.0679 25H52.8829C52.5556 25 52.3145 24.9311 52.1595 24.7933C52.0218 24.6383 51.9529 24.3972 51.9529 24.07V20.7633L48.0004 15.4675C47.6043 14.9336 47.3373 14.4686 47.1995 14.0725C47.079 13.6764 47.0187 13.0822 47.0187 12.29V7.33C47.0187 7.00278 47.0876 6.77028 47.2254 6.6325C47.3804 6.4775 47.6215 6.4 47.9487 6.4H51.927C52.2543 6.4 52.4868 6.4775 52.6245 6.6325C52.7795 6.77028 52.857 7.00278 52.857 7.33V11.5667C52.857 11.7389 52.8656 11.9197 52.8829 12.1092C52.9001 12.2986 52.969 12.4794 53.0895 12.6517L54.2779 14.5117C54.364 14.6667 54.4501 14.7786 54.5362 14.8475C54.6395 14.9164 54.7601 14.9508 54.8979 14.9508H55.1562C55.294 14.9508 55.4059 14.9164 55.492 14.8475C55.5954 14.7786 55.6901 14.6667 55.7762 14.5117L56.9645 12.6517C57.0851 12.4794 57.154 12.2986 57.1712 12.1092C57.1884 11.9197 57.197 11.7389 57.197 11.5667V7.33C57.197 7.00278 57.2659 6.77028 57.4037 6.6325C57.5587 6.4775 57.7998 6.4 58.127 6.4H61.9762C62.3034 6.4 62.5359 6.4775 62.6737 6.6325C62.8287 6.77028 62.9062 7.00278 62.9062 7.33V12.29C62.9062 13.0822 62.8373 13.6764 62.6995 14.0725C62.5618 14.4686 62.3034 14.9336 61.9245 15.4675L57.9979 20.7892V24.07C57.9979 24.3972 57.9204 24.6383 57.7654 24.7933C57.6276 24.9311 57.3951 25 57.0679 25ZM75.2824 25H71.0974C70.7702 25 70.5291 24.9311 70.3741 24.7933C70.2363 24.6383 70.1674 24.3972 70.1674 24.07V20.7633L66.2149 15.4675C65.8188 14.9336 65.5518 14.4686 65.4141 14.0725C65.2935 13.6764 65.2332 13.0822 65.2332 12.29V7.33C65.2332 7.00278 65.3021 6.77028 65.4399 6.6325C65.5949 6.4775 65.836 6.4 66.1632 6.4H70.1416C70.4688 6.4 70.7013 6.4775 70.8391 6.6325C70.9941 6.77028 71.0716 7.00278 71.0716 7.33V11.5667C71.0716 11.7389 71.0802 11.9197 71.0974 12.1092C71.1146 12.2986 71.1835 12.4794 71.3041 12.6517L72.4924 14.5117C72.5785 14.6667 72.6646 14.7786 72.7507 14.8475C72.8541 14.9164 72.9746 14.9508 73.1124 14.9508H73.3707C73.5085 14.9508 73.6204 14.9164 73.7066 14.8475C73.8099 14.7786 73.9046 14.6667 73.9907 14.5117L75.1791 12.6517C75.2996 12.4794 75.3685 12.2986 75.3857 12.1092C75.4029 11.9197 75.4116 11.7389 75.4116 11.5667V7.33C75.4116 7.00278 75.4804 6.77028 75.6182 6.6325C75.7732 6.4775 76.0143 6.4 76.3416 6.4H80.1907C80.5179 6.4 80.7504 6.4775 80.8882 6.6325C81.0432 6.77028 81.1207 7.00278 81.1207 7.33V12.29C81.1207 13.0822 81.0518 13.6764 80.9141 14.0725C80.7763 14.4686 80.5179 14.9336 80.1391 15.4675L76.2124 20.7892V24.07C76.2124 24.3972 76.1349 24.6383 75.9799 24.7933C75.8421 24.9311 75.6096 25 75.2824 25ZM88.8469 25H84.9977C84.6705 25 84.4294 24.9311 84.2744 24.7933C84.1366 24.6383 84.0677 24.3972 84.0677 24.07V7.33C84.0677 7.00278 84.1366 6.77028 84.2744 6.6325C84.4294 6.4775 84.6705 6.4 84.9977 6.4H89.1569C89.4325 6.4 89.6563 6.46028 89.8286 6.58083C90.018 6.70139 90.1902 6.89944 90.3452 7.175L92.6702 11.3858C92.7563 11.5408 92.8252 11.6528 92.8769 11.7217C92.9458 11.7906 93.0319 11.825 93.1352 11.825H93.3677C93.4711 11.825 93.5486 11.7906 93.6002 11.7217C93.6691 11.6528 93.7466 11.5408 93.8327 11.3858L96.1319 7.175C96.2869 6.89944 96.4505 6.70139 96.6227 6.58083C96.8122 6.46028 97.0447 6.4 97.3202 6.4H101.505C101.832 6.4 102.065 6.4775 102.203 6.6325C102.358 6.77028 102.435 7.00278 102.435 7.33V24.07C102.435 24.3972 102.358 24.6383 102.203 24.7933C102.065 24.9311 101.832 25 101.505 25H97.5269C97.1997 25 96.9586 24.9311 96.8036 24.7933C96.6658 24.6383 96.5969 24.3972 96.5969 24.07V14.9767L95.0727 17.7925C94.9177 18.0853 94.7283 18.3006 94.5044 18.4383C94.2977 18.5589 94.0308 18.6192 93.7036 18.6192H92.6702C92.343 18.6192 92.0675 18.5589 91.8436 18.4383C91.6369 18.3006 91.4561 18.0853 91.3011 17.7925L89.7769 14.9767V24.07C89.7769 24.3972 89.6994 24.6383 89.5444 24.7933C89.4066 24.9311 89.1741 25 88.8469 25Z" fill="#B9ED64"/>
<path d="M14.9006 23.8958H14.8999C15.2132 26.0866 17.0974 27.7708 19.3749 27.7708C21.6524 27.7708 23.5366 26.0866 23.85 23.8958H23.8493H23.8414H23.8336H23.8256H23.8177H23.8097H23.8017H23.7936H23.7855H23.7773H23.7691H23.7609H23.7526H23.7443H23.736H23.7276H23.7192H23.7107H23.7022H23.6937H23.6851H23.6765H23.6679H23.6592H23.6505H23.6417H23.6329H23.6241H23.6152H23.6063H23.5973H23.5884H23.5793H23.5703H23.5612H23.5521H23.5429H23.5337H23.5244H23.5152H23.5058H23.4965H23.4871H23.4777H23.4682H23.4587H23.4492H23.4396H23.43H23.4204H23.4107H23.401H23.3912H23.3814H23.3716H23.3618H23.3519H23.342H23.332H23.322H23.312H23.3019H23.2918H23.2817H23.2715H23.2613H23.2511H23.2408H23.2305H23.2202H23.2098H23.1994H23.1889H23.1785H23.168H23.1574H23.1468H23.1362H23.1256H23.1149H23.1042H23.0935H23.0827H23.0719H23.061H23.0502H23.0392H23.0283H23.0173H23.0063H22.9953H22.9842H22.9731H22.962H22.9508H22.9396H22.9284H22.9171H22.9058H22.8945H22.8831H22.8717H22.8603H22.8489H22.8374H22.8259H22.8143H22.8027H22.7911H22.7795H22.7678H22.7561H22.7444H22.7326H22.7208H22.709H22.6971H22.6853H22.6733H22.6614H22.6494H22.6374H22.6254H22.6133H22.6012H22.5891H22.5769H22.5648H22.5525H22.5403H22.528H22.5157H22.5034H22.491H22.4786H22.4662H22.4538H22.4413H22.4288H22.4163H22.4037H22.3911H22.3785H22.3658H22.3532H22.3405H22.3277H22.315H22.3022H22.2894H22.2765H22.2637H22.2508H22.2378H22.2249H22.2119H22.1989H22.1859H22.1728H22.1597H22.1466H22.1334H22.1203H22.1071H22.0939H22.0806H22.0673H22.054H22.0407H22.0273H22.014H22.0006H21.9871H21.9737H21.9602H21.9467H21.9331H21.9196H21.906H21.8924H21.8787H21.8651H21.8514H21.8377H21.8239H21.8102H21.7964H21.7826H21.7687H21.7549H21.741H21.7271H21.7131H21.6992H21.6852H21.6712H21.6571H21.6431H21.629H21.6149H21.6008H21.5866H21.5724H21.5582H21.544H21.5298H21.5155H21.5012H21.4869H21.4725H21.4582H21.4438H21.4294H21.4149H21.4005H21.386H21.3715H21.357H21.3425H21.3279H21.3133H21.2987H21.2841H21.2694H21.2547H21.24H21.2253H21.2106H21.1958H21.181H21.1662H21.1514H21.1365H21.1217H21.1068H21.0919H21.0769H21.062H21.047H21.032H21.017H21.002H20.9869H20.9718H20.9567H20.9416H20.9265H20.9113H20.8962H20.881H20.8657H20.8505H20.8352H20.82H20.8047H20.7894H20.774H20.7587H20.7433H20.7279H20.7125H20.6971H20.6816H20.6661H20.6507H20.6352H20.6196H20.6041H20.5885H20.573H20.5574H20.5417H20.5261H20.5105H20.4948H20.4791H20.4634H20.4477H20.4319H20.4162H20.4004H20.3846H20.3688H20.353H20.3371H20.3213H20.3054H20.2895H20.2736H20.2577H20.2417H20.2258H20.2098H20.1938H20.1778H20.1618H20.1457H20.1296H20.1136H20.0975H20.0814H20.0653H20.0491H20.033H20.0168H20.0006H19.9844H19.9682H19.952H19.9357H19.9195H19.9032H19.8869H19.8706H19.8543H19.8379H19.8216H19.8052H19.7888H19.7724H19.756H19.7396H19.7232H19.7067H19.6903H19.6738H19.6573H19.6408H19.6243H19.6077H19.5912H19.5746H19.5581H19.5415H19.5249H19.5083H19.4916H19.475H19.4584H19.4417H19.425H19.4083H19.3916H19.3749H19.3582H19.3415H19.3248H19.3081H19.2915H19.2748H19.2582H19.2416H19.225H19.2084H19.1918H19.1752H19.1586H19.1421H19.1256H19.109H19.0925H19.076H19.0596H19.0431H19.0267H19.0102H18.9938H18.9774H18.961H18.9446H18.9283H18.9119H18.8956H18.8793H18.8629H18.8467H18.8304H18.8141H18.7979H18.7816H18.7654H18.7492H18.733H18.7169H18.7007H18.6846H18.6685H18.6524H18.6363H18.6202H18.6041H18.5881H18.5721H18.556H18.5401H18.5241H18.5081H18.4922H18.4762H18.4603H18.4444H18.4286H18.4127H18.3969H18.381H18.3652H18.3494H18.3337H18.3179H18.3022H18.2864H18.2707H18.255H18.2394H18.2237H18.2081H18.1925H18.1769H18.1613H18.1457H18.1302H18.1147H18.0992H18.0837H18.0682H18.0528H18.0373H18.0219H18.0065H17.9912H17.9758H17.9605H17.9452H17.9299H17.9146H17.8993H17.8841H17.8689H17.8537H17.8385H17.8234H17.8082H17.7931H17.778H17.7629H17.7479H17.7328H17.7178H17.7028H17.6878H17.6729H17.658H17.6431H17.6282H17.6133H17.5984H17.5836H17.5688H17.554H17.5393H17.5245H17.5098H17.4951H17.4804H17.4658H17.4511H17.4365H17.4219H17.4074H17.3928H17.3783H17.3638H17.3493H17.3349H17.3205H17.306H17.2917H17.2773H17.263H17.2486H17.2344H17.2201H17.2058H17.1916H17.1774H17.1632H17.1491H17.135H17.1208H17.1068H17.0927H17.0787H17.0647H17.0507H17.0367H17.0228H17.0089H16.995H16.9811H16.9673H16.9535H16.9397H16.9259H16.9122H16.8985H16.8848H16.8711H16.8575H16.8439H16.8303H16.8167H16.8032H16.7897H16.7762H16.7627H16.7493H16.7359H16.7225H16.7091H16.6958H16.6825H16.6692H16.656H16.6428H16.6296H16.6164H16.6033H16.5901H16.577H16.564H16.551H16.5379H16.525H16.512H16.4991H16.4862H16.4733H16.4605H16.4477H16.4349H16.4221H16.4094H16.3967H16.384H16.3714H16.3587H16.3461H16.3336H16.321H16.3085H16.2961H16.2836H16.2712H16.2588H16.2465H16.2341H16.2218H16.2095H16.1973H16.1851H16.1729H16.1607H16.1486H16.1365H16.1245H16.1124H16.1004H16.0884H16.0765H16.0646H16.0527H16.0408H16.029H16.0172H16.0055H15.9937H15.982H15.9703H15.9587H15.9471H15.9355H15.924H15.9125H15.901H15.8895H15.8781H15.8667H15.8553H15.844H15.8327H15.8215H15.8102H15.799H15.7879H15.7767H15.7656H15.7546H15.7435H15.7325H15.7215H15.7106H15.6997H15.6888H15.678H15.6672H15.6564H15.6456H15.6349H15.6243H15.6136H15.603H15.5924H15.5819H15.5714H15.5609H15.5505H15.5401H15.5297H15.5193H15.509H15.4988H15.4885H15.4783H15.4682H15.458H15.4479H15.4379H15.4278H15.4178H15.4079H15.398H15.3881H15.3782H15.3684H15.3586H15.3489H15.3392H15.3295H15.3198H15.3102H15.3007H15.2911H15.2816H15.2722H15.2627H15.2534H15.244H15.2347H15.2254H15.2162H15.207H15.1978H15.1887H15.1796H15.1705H15.1615H15.1525H15.1435H15.1346H15.1258H15.1169H15.1081H15.0994H15.0906H15.082H15.0733H15.0647H15.0561H15.0476H15.0391H15.0306H15.0222H15.0138H15.0055H14.9972H14.9889H14.9807H14.9725H14.9644H14.9562H14.9482H14.9401H14.9322H14.9242H14.9163H14.9084H14.9006Z" fill="#222222" stroke="#B9ED64" stroke-width="1.29167"/>
<rect x="0.645833" y="14.8542" width="37.4583" height="9.04167" rx="4.52083" fill="#222222" stroke="#B9ED64" stroke-width="1.29167"/>
<circle cx="6.45841" cy="19.3752" r="1.29167" fill="#B9ED64"/>
<circle cx="12.9167" cy="19.3753" r="1.29167" fill="#B9ED64"/>
<circle cx="19.3749" cy="19.3753" r="1.29167" fill="#B9ED64"/>
<circle cx="25.8334" cy="19.3753" r="1.29167" fill="#B9ED64"/>
<circle cx="32.2917" cy="19.3753" r="1.29167" fill="#B9ED64"/>
<path d="M7.12428 14.8542H7.12079C7.45663 8.37743 12.8146 3.22921 19.3749 3.22921C25.9353 3.22921 31.2932 8.37743 31.629 14.8542H31.6256H31.6129H31.6002H31.5873H31.5743H31.5612H31.5481H31.5347H31.5213H31.5078H31.4942H31.4804H31.4666H31.4526H31.4385H31.4243H31.41H31.3956H31.3811H31.3665H31.3518H31.3369H31.322H31.307H31.2918H31.2765H31.2612H31.2457H31.2301H31.2144H31.1986H31.1827H31.1667H31.1506H31.1343H31.118H31.1016H31.0851H31.0684H31.0517H31.0348H31.0179H31.0008H30.9836H30.9664H30.949H30.9315H30.914H30.8963H30.8785H30.8606H30.8426H30.8246H30.8064H30.7881H30.7697H30.7512H30.7326H30.7139H30.6951H30.6762H30.6572H30.6381H30.619H30.5997H30.5803H30.5608H30.5412H30.5215H30.5017H30.4818H30.4619H30.4418H30.4216H30.4013H30.3809H30.3605H30.3399H30.3192H30.2985H30.2776H30.2567H30.2356H30.2145H30.1932H30.1719H30.1505H30.129H30.1073H30.0856H30.0638H30.0419H30.0199H29.9978H29.9756H29.9534H29.931H29.9085H29.886H29.8633H29.8406H29.8177H29.7948H29.7718H29.7487H29.7255H29.7022H29.6788H29.6554H29.6318H29.6081H29.5844H29.5606H29.5366H29.5126H29.4885H29.4643H29.4401H29.4157H29.3912H29.3667H29.342H29.3173H29.2925H29.2676H29.2426H29.2176H29.1924H29.1672H29.1418H29.1164H29.0909H29.0653H29.0396H29.0139H28.988H28.9621H28.9361H28.91H28.8838H28.8575H28.8312H28.8047H28.7782H28.7516H28.7249H28.6981H28.6713H28.6443H28.6173H28.5902H28.563H28.5357H28.5084H28.4809H28.4534H28.4258H28.3982H28.3704H28.3426H28.3146H28.2866H28.2586H28.2304H28.2022H28.1739H28.1455H28.117H28.0884H28.0598H28.0311H28.0023H27.9734H27.9445H27.9155H27.8864H27.8572H27.8279H27.7986H27.7692H27.7397H27.7101H27.6805H27.6508H27.621H27.5911H27.5612H27.5312H27.5011H27.4709H27.4407H27.4104H27.38H27.3495H27.319H27.2884H27.2577H27.2269H27.1961H27.1652H27.1342H27.1032H27.072H27.0409H27.0096H26.9783H26.9469H26.9154H26.8838H26.8522H26.8205H26.7888H26.7569H26.725H26.6931H26.661H26.6289H26.5967H26.5645H26.5322H26.4998H26.4674H26.4348H26.4022H26.3696H26.3369H26.3041H26.2712H26.2383H26.2053H26.1723H26.1391H26.1059H26.0727H26.0394H26.006H25.9725H25.939H25.9054H25.8718H25.8381H25.8043H25.7704H25.7365H25.7026H25.6685H25.6344H25.6003H25.5661H25.5318H25.4974H25.463H25.4285H25.394H25.3594H25.3248H25.29H25.2553H25.2204H25.1855H25.1505H25.1155H25.0804H25.0453H25.0101H24.9748H24.9395H24.9041H24.8687H24.8332H24.7976H24.762H24.7263H24.6906H24.6548H24.619H24.5831H24.5471H24.5111H24.475H24.4389H24.4027H24.3664H24.3301H24.2938H24.2573H24.2209H24.1843H24.1478H24.1111H24.0744H24.0377H24.0009H23.964H23.9271H23.8902H23.8532H23.8161H23.779H23.7418H23.7046H23.6673H23.63H23.5926H23.5552H23.5177H23.4801H23.4425H23.4049H23.3672H23.3295H23.2917H23.2538H23.2159H23.178H23.14H23.102H23.0639H23.0257H22.9875H22.9493H22.911H22.8727H22.8343H22.7959H22.7574H22.7189H22.6803H22.6417H22.603H22.5643H22.5255H22.4867L22.4479 14.8542H22.409H22.37H22.331H22.292H22.2529H22.2138H22.1746H22.1354H22.0961H22.0568H22.0175H21.9781H21.9386H21.8992H21.8596H21.8201H21.7805H21.7408H21.7011H21.6614H21.6216H21.5818H21.5419H21.502H21.4621H21.4221H21.3821H21.342H21.3019H21.2617H21.2216H21.1813H21.1411H21.1008H21.0604H21.02H20.9796H20.9391H20.8986H20.8581H20.8175H20.7769H20.7363H20.6956H20.6548H20.6141H20.5733H20.5324H20.4916H20.4507H20.4097H20.3687H20.3277H20.2867H20.2456H20.2044H20.1633H20.1221H20.0809H20.0396H19.9983H19.957H19.9156H19.8742H19.8328H19.7913H19.7498H19.7083H19.6667H19.6251H19.5835H19.5419H19.5002H19.4585H19.4167H19.3749H19.3331H19.2914H19.2497H19.208H19.1663H19.1247H19.0831H19.0415H19H18.9585H18.917H18.8756H18.8342H18.7929H18.7515H18.7102H18.669H18.6277H18.5865H18.5454H18.5043H18.4632H18.4221H18.3811H18.3401H18.2992H18.2583H18.2174H18.1766H18.1358H18.095H18.0543H18.0136H17.9729H17.9323H17.8917H17.8512H17.8107H17.7702H17.7298H17.6894H17.6491H17.6088H17.5685H17.5283H17.4881H17.4479H17.4078H17.3678H17.3277H17.2878H17.2478H17.2079H17.1681H17.1282H17.0885H17.0487H17.009H16.9694H16.9298H16.8902H16.8507H16.8112H16.7718H16.7324H16.693H16.6537H16.6145H16.5752H16.5361H16.4969H16.4579H16.4188H16.3798H16.3409H16.302H16.2631H16.2243H16.1856H16.1468H16.1082H16.0696H16.031H15.9925H15.954H15.9155H15.8772H15.8388H15.8005H15.7623H15.7241H15.686H15.6479H15.6098H15.5718H15.5339H15.496H15.4582H15.4204H15.3826H15.3449H15.3073H15.2697H15.2322H15.1947H15.1572H15.1199H15.0825H15.0453H15.008H14.9709H14.9337H14.8967H14.8597H14.8227H14.7858H14.7489H14.7121H14.6754H14.6387H14.6021H14.5655H14.529H14.4925H14.4561H14.4197H14.3834H14.3472H14.311H14.2748H14.2388H14.2027H14.1668H14.1309H14.095H14.0592H14.0235H13.9878H13.9522H13.9167H13.8812H13.8457H13.8103H13.775H13.7397H13.7045H13.6694H13.6343H13.5993H13.5643H13.5294H13.4946H13.4598H13.4251H13.3904H13.3558H13.3213H13.2868H13.2524H13.2181H13.1838H13.1496H13.1154H13.0813H13.0473H13.0133H12.9794H12.9456H12.9118H12.8781H12.8444H12.8108H12.7773H12.7439H12.7105H12.6772H12.6439H12.6107H12.5776H12.5445H12.5115H12.4786H12.4458H12.413H12.3802H12.3476H12.315H12.2825H12.25H12.2176H12.1853H12.1531H12.1209H12.0888H12.0568H12.0248H11.9929H11.9611H11.9293H11.8976H11.866H11.8345H11.803H11.7716H11.7402H11.709H11.6778H11.6467H11.6156H11.5847H11.5537H11.5229H11.4922H11.4615H11.4309H11.4003H11.3699H11.3395H11.3092H11.2789H11.2488H11.2187H11.1887H11.1587H11.1289H11.0991H11.0693H11.0397H11.0101H10.9807H10.9513H10.9219H10.8927H10.8635H10.8344H10.8054H10.7764H10.7475H10.7188H10.69H10.6614H10.6329H10.6044H10.576H10.5477H10.5194H10.4913H10.4632H10.4352H10.4073H10.3794H10.3517H10.324H10.2964H10.2689H10.2415H10.2141H10.1868H10.1596H10.1325H10.1055H10.0786H10.0517H10.0249H9.99826H9.97165H9.94513H9.91869H9.89233H9.86606H9.83987H9.81377H9.78775H9.76182H9.73597H9.71021H9.68453H9.65894H9.63343H9.60801H9.58268H9.55744H9.53228H9.50721H9.48222H9.45732H9.43251H9.40779H9.38316H9.35861H9.33415H9.30978H9.2855H9.26131H9.23721H9.2132H9.18927H9.16544H9.1417H9.11804H9.09448H9.07101H9.04763H9.02434H9.00114H8.97803H8.95501H8.93209H8.90925H8.88651H8.86386H8.84131H8.81885H8.79647H8.7742H8.75201H8.72992H8.70793H8.68602H8.66422H8.6425H8.62088H8.59936H8.57793H8.55659H8.53535H8.51421H8.49316H8.47221H8.45135H8.43059H8.40993H8.38936H8.36889H8.34852H8.32824H8.30806H8.28798H8.268H8.24812H8.22833H8.20864H8.18905H8.16956H8.15017H8.13088H8.11169H8.09259H8.0736H8.05471H8.03592H8.01722H7.99863H7.98014H7.96175H7.94346H7.92528H7.90719H7.88921H7.87133H7.85355H7.83587H7.8183H7.80083H7.78346H7.76619H7.74903H7.73198H7.71502H7.69817H7.68143H7.66478H7.64825H7.63182H7.61549H7.59927H7.58315H7.56714H7.55124H7.53544H7.51975H7.50416H7.48868H7.47331H7.45804H7.44288H7.42783H7.41289H7.39805H7.38333H7.36871H7.35419H7.33979H7.3255H7.31131H7.29724H7.28327H7.26942H7.25567H7.24203H7.22851H7.21509H7.20178H7.18859H7.1755H7.16253H7.14967H7.13692H7.12428Z" fill="#222222" stroke="#B9ED64" stroke-width="1.29167"/>
<path d="M14.2083 12.9168C10.6414 12.9168 10.3333 12.9168 10.3333 12.9168C10.3333 9.34999 13.2247 6.4585 16.7916 6.4585C16.7916 6.4585 14.2083 9.34999 14.2083 12.9168Z" fill="white"/>
</svg>
