<svg width="108" height="63" viewBox="0 0 108 63" fill="none" xmlns="http://www.w3.org/2000/svg">
<path d="M54 14L100.765 50.75H7.23463L54 14Z" fill="#B9ED64" fill-opacity="0.5"/>
<ellipse cx="53.9355" cy="51" rx="46.5" ry="5" fill="url(#paint0_linear_281_2)"/>
<circle cx="30.9355" cy="39.5" r="0.5" fill="#B9ED64"/>
<circle cx="46.9355" cy="35.5" r="0.5" fill="#B9ED64"/>
<circle cx="57.9355" cy="43.5" r="0.5" fill="#B9ED64"/>
<circle cx="62.9355" cy="26.5" r="0.5" fill="#B9ED64"/>
<circle cx="47.9355" cy="23.5" r="0.5" fill="#B9ED64"/>
<circle cx="73.9355" cy="49.5" r="0.5" fill="#B9ED64"/>
<circle cx="34.9355" cy="50.5" r="0.5" fill="#B9ED64"/>
<circle cx="77.9355" cy="37.5" r="0.5" fill="#B9ED64"/>
<circle cx="87.9355" cy="51.5" r="0.5" fill="#B9ED64"/>
<circle cx="23.9355" cy="44.5" r="0.5" fill="#B9ED64"/>
<circle cx="58.9355" cy="33.5" r="0.5" fill="#B9ED64"/>
<circle cx="49.9355" cy="53.5" r="0.5" fill="#B9ED64"/>
<circle cx="41.9355" cy="29.5" r="0.5" fill="#B9ED64"/>
<circle cx="69.9355" cy="39.5" r="0.5" fill="#B9ED64"/>
<circle cx="43.9355" cy="42.5" r="0.5" fill="#B9ED64"/>
<circle cx="37.4355" cy="38" r="1" fill="#B9ED64"/>
<circle cx="56.4355" cy="25" r="1" fill="#B9ED64"/>
<circle cx="51.4355" cy="43" r="1" fill="#B9ED64"/>
<circle cx="67.4355" cy="34" r="1" fill="#B9ED64"/>
<circle cx="64.4355" cy="54" r="1" fill="#B9ED64"/>
<circle cx="76.4355" cy="43" r="1" fill="#B9ED64"/>
<circle cx="32.4355" cy="46" r="1" fill="#B9ED64"/>
<circle cx="22.4355" cy="49" r="1" fill="#B9ED64"/>
<circle cx="36.4355" cy="32" r="1" fill="#B9ED64"/>
<circle cx="65.4355" cy="40" r="1" fill="#B9ED64"/>
<circle cx="50.4355" cy="29" r="1" fill="#B9ED64"/>
<circle cx="43.4355" cy="51" r="1" fill="#B9ED64"/>
<circle cx="91.4355" cy="47" r="1" fill="#B9ED64"/>
<circle cx="53.4355" cy="36" r="1" fill="#B9ED64"/>
<circle cx="61.4355" cy="48" r="1" fill="#B9ED64"/>
<path d="M33.2563 50H28.3963C28.0163 50 27.7363 49.92 27.5563 49.76C27.3963 49.58 27.3163 49.3 27.3163 48.92V45.08L22.7263 38.93C22.2663 38.31 21.9563 37.77 21.7963 37.31C21.6563 36.85 21.5863 36.16 21.5863 35.24V29.48C21.5863 29.1 21.6663 28.83 21.8263 28.67C22.0063 28.49 22.2863 28.4 22.6663 28.4H27.2863C27.6663 28.4 27.9363 28.49 28.0963 28.67C28.2763 28.83 28.3663 29.1 28.3663 29.48V34.4C28.3663 34.6 28.3763 34.81 28.3963 35.03C28.4163 35.25 28.4963 35.46 28.6363 35.66L30.0163 37.82C30.1163 38 30.2163 38.13 30.3163 38.21C30.4363 38.29 30.5763 38.33 30.7363 38.33H31.0363C31.1963 38.33 31.3263 38.29 31.4263 38.21C31.5463 38.13 31.6563 38 31.7563 37.82L33.1363 35.66C33.2763 35.46 33.3563 35.25 33.3763 35.03C33.3963 34.81 33.4063 34.6 33.4063 34.4V29.48C33.4063 29.1 33.4863 28.83 33.6463 28.67C33.8263 28.49 34.1063 28.4 34.4863 28.4H38.9563C39.3363 28.4 39.6063 28.49 39.7663 28.67C39.9463 28.83 40.0363 29.1 40.0363 29.48V35.24C40.0363 36.16 39.9563 36.85 39.7963 37.31C39.6363 37.77 39.3363 38.31 38.8963 38.93L34.3363 45.11V48.92C34.3363 49.3 34.2463 49.58 34.0663 49.76C33.9063 49.92 33.6363 50 33.2563 50ZM54.4087 50H49.5487C49.1687 50 48.8887 49.92 48.7087 49.76C48.5487 49.58 48.4687 49.3 48.4687 48.92V45.08L43.8787 38.93C43.4187 38.31 43.1087 37.77 42.9487 37.31C42.8087 36.85 42.7387 36.16 42.7387 35.24V29.48C42.7387 29.1 42.8187 28.83 42.9787 28.67C43.1587 28.49 43.4387 28.4 43.8187 28.4H48.4387C48.8187 28.4 49.0887 28.49 49.2487 28.67C49.4287 28.83 49.5187 29.1 49.5187 29.48V34.4C49.5187 34.6 49.5287 34.81 49.5487 35.03C49.5687 35.25 49.6487 35.46 49.7887 35.66L51.1687 37.82C51.2687 38 51.3687 38.13 51.4687 38.21C51.5887 38.29 51.7287 38.33 51.8887 38.33H52.1887C52.3487 38.33 52.4787 38.29 52.5787 38.21C52.6987 38.13 52.8087 38 52.9087 37.82L54.2887 35.66C54.4287 35.46 54.5087 35.25 54.5287 35.03C54.5487 34.81 54.5587 34.6 54.5587 34.4V29.48C54.5587 29.1 54.6387 28.83 54.7987 28.67C54.9787 28.49 55.2587 28.4 55.6387 28.4H60.1087C60.4887 28.4 60.7587 28.49 60.9187 28.67C61.0987 28.83 61.1887 29.1 61.1887 29.48V35.24C61.1887 36.16 61.1087 36.85 60.9487 37.31C60.7887 37.77 60.4887 38.31 60.0487 38.93L55.4887 45.11V48.92C55.4887 49.3 55.3987 49.58 55.2187 49.76C55.0587 49.92 54.7887 50 54.4087 50ZM70.161 50H65.691C65.311 50 65.031 49.92 64.851 49.76C64.691 49.58 64.611 49.3 64.611 48.92V29.48C64.611 29.1 64.691 28.83 64.851 28.67C65.031 28.49 65.311 28.4 65.691 28.4H70.521C70.841 28.4 71.101 28.47 71.301 28.61C71.521 28.75 71.721 28.98 71.901 29.3L74.601 34.19C74.701 34.37 74.781 34.5 74.841 34.58C74.921 34.66 75.021 34.7 75.141 34.7H75.411C75.531 34.7 75.621 34.66 75.681 34.58C75.761 34.5 75.851 34.37 75.951 34.19L78.621 29.3C78.801 28.98 78.991 28.75 79.191 28.61C79.411 28.47 79.681 28.4 80.001 28.4H84.861C85.241 28.4 85.511 28.49 85.671 28.67C85.851 28.83 85.941 29.1 85.941 29.48V48.92C85.941 49.3 85.851 49.58 85.671 49.76C85.511 49.92 85.241 50 84.861 50H80.241C79.861 50 79.581 49.92 79.401 49.76C79.241 49.58 79.161 49.3 79.161 48.92V38.36L77.391 41.63C77.211 41.97 76.991 42.22 76.731 42.38C76.491 42.52 76.181 42.59 75.801 42.59H74.601C74.221 42.59 73.901 42.52 73.641 42.38C73.401 42.22 73.191 41.97 73.011 41.63L71.241 38.36V48.92C71.241 49.3 71.151 49.58 70.971 49.76C70.811 49.92 70.541 50 70.161 50Z" fill="#222222"/>
<path d="M27.5563 49.76L26.4352 50.7565L26.4938 50.8225L26.5598 50.8811L27.5563 49.76ZM27.3163 45.08H28.8163V44.582L28.5184 44.1828L27.3163 45.08ZM22.7263 38.93L21.5217 39.8238L21.5242 39.8272L22.7263 38.93ZM21.7963 37.31L20.3613 37.7467L20.3699 37.7749L20.3796 37.8028L21.7963 37.31ZM21.8263 28.67L20.7657 27.6093L20.7657 27.6093L21.8263 28.67ZM28.0963 28.67L26.9752 29.6665L27.0338 29.7325L27.0998 29.7911L28.0963 28.67ZM28.3963 35.03L26.9025 35.1658V35.1658L28.3963 35.03ZM28.6363 35.66L29.9004 34.8524L29.8833 34.8257L29.8652 34.7998L28.6363 35.66ZM30.0163 37.82L31.3276 37.0915L31.3052 37.0512L31.2804 37.0124L30.0163 37.82ZM30.3163 38.21L29.3793 39.3813L29.4301 39.422L29.4843 39.4581L30.3163 38.21ZM31.4263 38.21L30.5943 36.9619L30.5401 36.998L30.4893 37.0387L31.4263 38.21ZM31.7563 37.82L30.4923 37.0124L30.4675 37.0513L30.4451 37.0915L31.7563 37.82ZM33.1363 35.66L31.9075 34.7998L31.8893 34.8257L31.8723 34.8524L33.1363 35.66ZM33.3763 35.03L34.8702 35.1658V35.1658L33.3763 35.03ZM39.7663 28.67L38.6452 29.6665L38.7038 29.7325L38.7698 29.7911L39.7663 28.67ZM39.7963 37.31L38.3796 36.8172L38.3796 36.8172L39.7963 37.31ZM38.8963 38.93L40.1033 39.8206L40.1116 39.8094L40.1196 39.7981L38.8963 38.93ZM34.3363 45.11L33.1293 44.2194L32.8363 44.6165V45.11H34.3363ZM34.0663 49.76L35.127 50.8207L35.127 50.8207L34.0663 49.76ZM33.2563 48.5H28.3963V51.5H33.2563V48.5ZM28.3963 48.5C28.3058 48.5 28.2858 48.4898 28.3134 48.4977C28.3453 48.5068 28.4431 48.5413 28.5529 48.6389L26.5598 50.8811C27.135 51.3924 27.851 51.5 28.3963 51.5V48.5ZM28.6774 48.7635C28.775 48.8732 28.8095 48.971 28.8186 49.0029C28.8265 49.0305 28.8163 49.0105 28.8163 48.92H25.8163C25.8163 49.4653 25.9239 50.1814 26.4352 50.7565L28.6774 48.7635ZM28.8163 48.92V45.08H25.8163V48.92H28.8163ZM28.5184 44.1828L23.9284 38.0328L21.5242 39.8272L26.1142 45.9772L28.5184 44.1828ZM23.931 38.0362C23.5152 37.4758 23.3027 37.0749 23.2131 36.8172L20.3796 37.8028C20.6099 38.4651 21.0175 39.1442 21.5217 39.8238L23.931 38.0362ZM23.2313 36.8733C23.1576 36.6309 23.0863 36.121 23.0863 35.24H20.0863C20.0863 36.199 20.1551 37.0691 20.3613 37.7467L23.2313 36.8733ZM23.0863 35.24V29.48H20.0863V35.24H23.0863ZM23.0863 29.48C23.0863 29.3875 23.097 29.3766 23.0845 29.4186C23.0706 29.4656 23.0219 29.5958 22.887 29.7307L20.7657 27.6093C20.1847 28.1903 20.0863 28.9569 20.0863 29.48H23.0863ZM22.887 29.7307C22.784 29.8336 22.6819 29.879 22.6303 29.8955C22.586 29.9098 22.5891 29.9 22.6663 29.9V26.9C22.0826 26.9 21.3396 27.0354 20.7657 27.6093L22.887 29.7307ZM22.6663 29.9H27.2863V26.9H22.6663V29.9ZM27.2863 29.9C27.3657 29.9 27.359 29.9104 27.2995 29.8905C27.2308 29.8676 27.0991 29.8059 26.9752 29.6665L29.2174 27.6735C28.6432 27.0274 27.8506 26.9 27.2863 26.9V29.9ZM27.0998 29.7911C26.9604 29.6672 26.8987 29.5355 26.8758 29.4668C26.856 29.4073 26.8663 29.4007 26.8663 29.48H29.8663C29.8663 28.9157 29.7389 28.1231 29.0929 27.5489L27.0998 29.7911ZM26.8663 29.48V34.4H29.8663V29.48H26.8663ZM26.8663 34.4C26.8663 34.6497 26.8788 34.9053 26.9025 35.1658L29.8902 34.8942C29.8739 34.7147 29.8663 34.5503 29.8663 34.4H26.8663ZM26.9025 35.1658C26.9486 35.6729 27.1337 36.129 27.4075 36.5202L29.8652 34.7998C29.86 34.7924 29.8655 34.7986 29.8731 34.8185C29.8809 34.8392 29.8876 34.8655 29.8902 34.8942L26.9025 35.1658ZM27.3723 36.4676L28.7523 38.6276L31.2804 37.0124L29.9004 34.8524L27.3723 36.4676ZM28.7051 38.5485C28.8491 38.8078 29.0624 39.1278 29.3793 39.3813L31.2534 37.0387C31.2875 37.066 31.3119 37.0898 31.3275 37.1061C31.3432 37.1226 31.3522 37.134 31.3553 37.1379C31.3603 37.1445 31.3501 37.1322 31.3276 37.0915L28.7051 38.5485ZM29.4843 39.4581C29.8773 39.7201 30.3139 39.83 30.7363 39.83V36.83C30.8388 36.83 30.9954 36.8599 31.1484 36.9619L29.4843 39.4581ZM30.7363 39.83H31.0363V36.83H30.7363V39.83ZM31.0363 39.83C31.45 39.83 31.9366 39.7227 32.3634 39.3813L30.4893 37.0387C30.716 36.8573 30.9427 36.83 31.0363 36.83V39.83ZM32.2584 39.4581C32.6439 39.2011 32.8979 38.8538 33.0676 38.5485L30.4451 37.0915C30.433 37.1132 30.4342 37.1067 30.4537 37.0836C30.4736 37.0601 30.5185 37.0124 30.5943 36.9619L32.2584 39.4581ZM33.0204 38.6276L34.4004 36.4676L31.8723 34.8524L30.4923 37.0124L33.0204 38.6276ZM34.3652 36.5202C34.639 36.129 34.8241 35.6729 34.8702 35.1658L31.8825 34.8942C31.8851 34.8655 31.8917 34.8392 31.8996 34.8185C31.9072 34.7986 31.9127 34.7924 31.9075 34.7998L34.3652 36.5202ZM34.8702 35.1658C34.8939 34.9053 34.9063 34.6497 34.9063 34.4H31.9063C31.9063 34.5503 31.8988 34.7147 31.8825 34.8942L34.8702 35.1658ZM34.9063 34.4V29.48H31.9063V34.4H34.9063ZM34.9063 29.48C34.9063 29.3875 34.917 29.3766 34.9045 29.4186C34.8906 29.4656 34.8419 29.5958 34.707 29.7307L32.5857 27.6093C32.0047 28.1903 31.9063 28.9569 31.9063 29.48H34.9063ZM34.707 29.7307C34.604 29.8336 34.5019 29.879 34.4503 29.8955C34.406 29.9098 34.4091 29.9 34.4863 29.9V26.9C33.9026 26.9 33.1596 27.0354 32.5857 27.6093L34.707 29.7307ZM34.4863 29.9H38.9563V26.9H34.4863V29.9ZM38.9563 29.9C39.0357 29.9 39.029 29.9104 38.9695 29.8905C38.9008 29.8676 38.7691 29.8059 38.6452 29.6665L40.8874 27.6735C40.3132 27.0274 39.5206 26.9 38.9563 26.9V29.9ZM38.7698 29.7911C38.6304 29.6672 38.5687 29.5355 38.5458 29.4668C38.526 29.4073 38.5363 29.4007 38.5363 29.48H41.5363C41.5363 28.9157 41.4089 28.1231 40.7629 27.5489L38.7698 29.7911ZM38.5363 29.48V35.24H41.5363V29.48H38.5363ZM38.5363 35.24C38.5363 36.1137 38.4552 36.5998 38.3796 36.8172L41.2131 37.8028C41.4575 37.1002 41.5363 36.2063 41.5363 35.24H38.5363ZM38.3796 36.8172C38.2845 37.0907 38.0716 37.5003 37.6731 38.0619L40.1196 39.7981C40.6011 39.1197 40.9882 38.4493 41.2131 37.8028L38.3796 36.8172ZM37.6893 38.0394L33.1293 44.2194L35.5433 46.0006L40.1033 39.8206L37.6893 38.0394ZM32.8363 45.11V48.92H35.8363V45.11H32.8363ZM32.8363 48.92C32.8363 48.9972 32.8265 49.0004 32.8408 48.956C32.8573 48.9045 32.9027 48.8023 33.0057 48.6993L35.127 50.8207C35.7009 50.2468 35.8363 49.5037 35.8363 48.92H32.8363ZM33.0057 48.6993C33.1406 48.5644 33.2707 48.5157 33.3177 48.5018C33.3597 48.4894 33.3489 48.5 33.2563 48.5V51.5C33.7794 51.5 34.546 51.4016 35.127 50.8207L33.0057 48.6993ZM48.7087 49.76L47.5876 50.7565L47.6462 50.8225L47.7121 50.8811L48.7087 49.76ZM48.4687 45.08H49.9687V44.582L49.6708 44.1828L48.4687 45.08ZM43.8787 38.93L42.674 39.8238L42.6766 39.8272L43.8787 38.93ZM42.9487 37.31L41.5137 37.7467L41.5222 37.7749L41.5319 37.8028L42.9487 37.31ZM42.9787 28.67L41.918 27.6093V27.6093L42.9787 28.67ZM49.2487 28.67L48.1276 29.6665L48.1862 29.7325L48.2521 29.7911L49.2487 28.67ZM49.5487 35.03L48.0548 35.1658V35.1658L49.5487 35.03ZM49.7887 35.66L51.0527 34.8524L51.0357 34.8257L51.0175 34.7998L49.7887 35.66ZM51.1687 37.82L52.4799 37.0915L52.4575 37.0512L52.4327 37.0124L51.1687 37.82ZM51.4687 38.21L50.5316 39.3813L50.5825 39.422L50.6366 39.4581L51.4687 38.21ZM52.5787 38.21L51.7466 36.9619L51.6925 36.998L51.6416 37.0387L52.5787 38.21ZM52.9087 37.82L51.6446 37.0124L51.6198 37.0513L51.5974 37.0915L52.9087 37.82ZM54.2887 35.66L53.0598 34.7998L53.0417 34.8257L53.0246 34.8524L54.2887 35.66ZM54.5287 35.03L56.0225 35.1658L56.0225 35.1658L54.5287 35.03ZM60.9187 28.67L59.7976 29.6665L59.8562 29.7325L59.9221 29.7911L60.9187 28.67ZM60.9487 37.31L59.5319 36.8172L59.5319 36.8172L60.9487 37.31ZM60.0487 38.93L61.2557 39.8206L61.2639 39.8094L61.2719 39.7981L60.0487 38.93ZM55.4887 45.11L54.2817 44.2194L53.9887 44.6165V45.11H55.4887ZM55.2187 49.76L56.2793 50.8207V50.8207L55.2187 49.76ZM54.4087 48.5H49.5487V51.5H54.4087V48.5ZM49.5487 48.5C49.4582 48.5 49.4381 48.4898 49.4658 48.4977C49.4976 48.5068 49.5954 48.5413 49.7052 48.6389L47.7121 50.8811C48.2873 51.3924 49.0033 51.5 49.5487 51.5V48.5ZM49.8298 48.7635C49.9274 48.8732 49.9619 48.971 49.971 49.0029C49.9788 49.0305 49.9687 49.0105 49.9687 48.92H46.9687C46.9687 49.4653 47.0763 50.1814 47.5876 50.7565L49.8298 48.7635ZM49.9687 48.92V45.08H46.9687V48.92H49.9687ZM49.6708 44.1828L45.0808 38.0328L42.6766 39.8272L47.2666 45.9772L49.6708 44.1828ZM45.0833 38.0362C44.6675 37.4758 44.4551 37.0749 44.3654 36.8172L41.5319 37.8028C41.7623 38.4651 42.1698 39.1442 42.674 39.8238L45.0833 38.0362ZM44.3837 36.8733C44.3099 36.6309 44.2387 36.121 44.2387 35.24H41.2387C41.2387 36.199 41.3074 37.0691 41.5137 37.7467L44.3837 36.8733ZM44.2387 35.24V29.48H41.2387V35.24H44.2387ZM44.2387 29.48C44.2387 29.3875 44.2493 29.3766 44.2369 29.4186C44.223 29.4656 44.1742 29.5958 44.0393 29.7307L41.918 27.6093C41.337 28.1903 41.2387 28.9569 41.2387 29.48H44.2387ZM44.0393 29.7307C43.9364 29.8336 43.8342 29.879 43.7827 29.8955C43.7383 29.9098 43.7415 29.9 43.8187 29.9V26.9C43.2349 26.9 42.4919 27.0354 41.918 27.6093L44.0393 29.7307ZM43.8187 29.9H48.4387V26.9H43.8187V29.9ZM48.4387 29.9C48.518 29.9 48.5113 29.9104 48.4518 29.8905C48.3832 29.8676 48.2514 29.8059 48.1276 29.6665L50.3698 27.6735C49.7956 27.0274 49.003 26.9 48.4387 26.9V29.9ZM48.2521 29.7911C48.1128 29.6672 48.051 29.5355 48.0281 29.4668C48.0083 29.4073 48.0187 29.4007 48.0187 29.48H51.0187C51.0187 28.9157 50.8912 28.1231 50.2452 27.5489L48.2521 29.7911ZM48.0187 29.48V34.4H51.0187V29.48H48.0187ZM48.0187 34.4C48.0187 34.6497 48.0311 34.9053 48.0548 35.1658L51.0425 34.8942C51.0262 34.7147 51.0187 34.5503 51.0187 34.4H48.0187ZM48.0548 35.1658C48.1009 35.6729 48.286 36.129 48.5598 36.5202L51.0175 34.7998C51.0123 34.7924 51.0178 34.7986 51.0254 34.8185C51.0333 34.8392 51.0399 34.8655 51.0425 34.8942L48.0548 35.1658ZM48.5246 36.4676L49.9046 38.6276L52.4327 37.0124L51.0527 34.8524L48.5246 36.4676ZM49.8574 38.5485C50.0015 38.8078 50.2148 39.1278 50.5316 39.3813L52.4057 37.0387C52.4398 37.066 52.4643 37.0898 52.4799 37.1061C52.4955 37.1226 52.5046 37.134 52.5076 37.1379C52.5127 37.1445 52.5025 37.1322 52.4799 37.0915L49.8574 38.5485ZM50.6366 39.4581C51.0296 39.7201 51.4662 39.83 51.8887 39.83V36.83C51.9911 36.83 52.1477 36.8599 52.3007 36.9619L50.6366 39.4581ZM51.8887 39.83H52.1887V36.83H51.8887V39.83ZM52.1887 39.83C52.6023 39.83 53.089 39.7227 53.5157 39.3813L51.6416 37.0387C51.8684 36.8573 52.095 36.83 52.1887 36.83V39.83ZM53.4107 39.4581C53.7962 39.2011 54.0503 38.8538 54.2199 38.5485L51.5974 37.0915C51.5854 37.1132 51.5865 37.1067 51.6061 37.0836C51.6259 37.0601 51.6709 37.0124 51.7466 36.9619L53.4107 39.4581ZM54.1727 38.6276L55.5527 36.4676L53.0246 34.8524L51.6446 37.0124L54.1727 38.6276ZM55.5175 36.5202C55.7913 36.129 55.9764 35.6729 56.0225 35.1658L53.0348 34.8942C53.0374 34.8655 53.0441 34.8392 53.0519 34.8185C53.0595 34.7986 53.065 34.7924 53.0598 34.7998L55.5175 36.5202ZM56.0225 35.1658C56.0462 34.9053 56.0587 34.6497 56.0587 34.4H53.0587C53.0587 34.5503 53.0511 34.7147 53.0348 34.8942L56.0225 35.1658ZM56.0587 34.4V29.48H53.0587V34.4H56.0587ZM56.0587 29.48C56.0587 29.3875 56.0693 29.3766 56.0569 29.4186C56.0429 29.4656 55.9942 29.5958 55.8593 29.7307L53.738 27.6093C53.157 28.1903 53.0587 28.9569 53.0587 29.48H56.0587ZM55.8593 29.7307C55.7564 29.8336 55.6542 29.879 55.6027 29.8955C55.5583 29.9098 55.5615 29.9 55.6387 29.9V26.9C55.0549 26.9 54.3119 27.0354 53.738 27.6093L55.8593 29.7307ZM55.6387 29.9H60.1087V26.9H55.6387V29.9ZM60.1087 29.9C60.188 29.9 60.1813 29.9104 60.1218 29.8905C60.0532 29.8676 59.9214 29.8059 59.7976 29.6665L62.0398 27.6735C61.4656 27.0274 60.673 26.9 60.1087 26.9V29.9ZM59.9221 29.7911C59.7828 29.6672 59.721 29.5355 59.6981 29.4668C59.6783 29.4073 59.6887 29.4007 59.6887 29.48H62.6887C62.6887 28.9157 62.5612 28.1231 61.9152 27.5489L59.9221 29.7911ZM59.6887 29.48V35.24H62.6887V29.48H59.6887ZM59.6887 35.24C59.6887 36.1137 59.6075 36.5998 59.5319 36.8172L62.3654 37.8028C62.6098 37.1002 62.6887 36.2063 62.6887 35.24H59.6887ZM59.5319 36.8172C59.4368 37.0907 59.2239 37.5003 58.8254 38.0619L61.2719 39.7981C61.7534 39.1197 62.1405 38.4493 62.3654 37.8028L59.5319 36.8172ZM58.8417 38.0394L54.2817 44.2194L56.6957 46.0006L61.2557 39.8206L58.8417 38.0394ZM53.9887 45.11V48.92H56.9887V45.11H53.9887ZM53.9887 48.92C53.9887 48.9972 53.9789 49.0004 53.9931 48.956C54.0097 48.9045 54.0551 48.8023 54.158 48.6993L56.2793 50.8207C56.8532 50.2468 56.9887 49.5037 56.9887 48.92H53.9887ZM54.158 48.6993C54.2929 48.5644 54.4231 48.5157 54.47 48.5018C54.5121 48.4894 54.5012 48.5 54.4087 48.5V51.5C54.9318 51.5 55.6984 51.4016 56.2793 50.8207L54.158 48.6993ZM64.851 49.76L63.7299 50.7565L63.7885 50.8225L63.8545 50.8811L64.851 49.76ZM64.851 28.67L63.7904 27.6093V27.6093L64.851 28.67ZM71.301 28.61L70.4408 29.8388L70.4679 29.8578L70.4957 29.8755L71.301 28.61ZM71.901 29.3L73.2142 28.5749L73.2084 28.5646L71.901 29.3ZM74.601 34.19L73.2879 34.915L73.2898 34.9185L74.601 34.19ZM74.841 34.58L73.641 35.48L73.705 35.5653L73.7804 35.6407L74.841 34.58ZM75.681 34.58L74.6204 33.5193L74.545 33.5947L74.481 33.68L75.681 34.58ZM75.951 34.19L77.2623 34.9185L77.2676 34.9088L75.951 34.19ZM78.621 29.3L77.3137 28.5646L77.309 28.5729L77.3045 28.5812L78.621 29.3ZM79.191 28.61L78.3857 27.3445L78.3579 27.3622L78.3308 27.3812L79.191 28.61ZM85.671 28.67L84.5499 29.6665L84.6085 29.7325L84.6745 29.7911L85.671 28.67ZM85.671 49.76L86.7317 50.8207V50.8207L85.671 49.76ZM79.401 49.76L78.2799 50.7565L78.3385 50.8225L78.4045 50.8811L79.401 49.76ZM79.161 38.36H80.661L77.8419 37.646L79.161 38.36ZM77.391 41.63L76.0718 40.9159L76.0653 40.9282L77.391 41.63ZM76.731 42.38L77.4868 43.6757L77.5021 43.6668L77.5172 43.6575L76.731 42.38ZM73.641 42.38L72.809 43.6281L72.8677 43.6672L72.9299 43.7007L73.641 42.38ZM73.011 41.63L74.3368 40.9281L74.3302 40.916L73.011 41.63ZM71.241 38.36L72.5602 37.646L69.741 38.36H71.241ZM70.971 49.76L72.0317 50.8207L72.0317 50.8207L70.971 49.76ZM70.161 48.5H65.691V51.5H70.161V48.5ZM65.691 48.5C65.6005 48.5 65.5805 48.4898 65.6081 48.4977C65.64 48.5068 65.7378 48.5413 65.8476 48.6389L63.8545 50.8811C64.4297 51.3924 65.1457 51.5 65.691 51.5V48.5ZM65.9721 48.7635C66.0697 48.8732 66.1042 48.971 66.1133 49.0029C66.1212 49.0305 66.111 49.0105 66.111 48.92H63.111C63.111 49.4653 63.2186 50.1814 63.7299 50.7565L65.9721 48.7635ZM66.111 48.92V29.48H63.111V48.92H66.111ZM66.111 29.48C66.111 29.3875 66.1217 29.3766 66.1092 29.4186C66.0953 29.4656 66.0466 29.5958 65.9117 29.7307L63.7904 27.6093C63.2094 28.1903 63.111 28.9569 63.111 29.48H66.111ZM65.9117 29.7307C65.8087 29.8336 65.7066 29.879 65.655 29.8955C65.6107 29.9098 65.6138 29.9 65.691 29.9V26.9C65.1073 26.9 64.3643 27.0354 63.7904 27.6093L65.9117 29.7307ZM65.691 29.9H70.521V26.9H65.691V29.9ZM70.521 29.9C70.5733 29.9 70.5844 29.9059 70.5661 29.9009C70.545 29.8953 70.4976 29.8786 70.4408 29.8388L72.1612 27.3811C71.6412 27.0172 71.054 26.9 70.521 26.9V29.9ZM70.4957 29.8755C70.4653 29.8562 70.4633 29.8478 70.4841 29.8718C70.5054 29.8963 70.5438 29.9467 70.5937 30.0354L73.2084 28.5646C72.9538 28.112 72.6024 27.6602 72.1063 27.3445L70.4957 29.8755ZM70.5879 30.025L73.2879 34.915L75.9141 33.465L73.2141 28.575L70.5879 30.025ZM73.2898 34.9185C73.3959 35.1095 73.5166 35.3141 73.641 35.48L76.041 33.68C76.0489 33.6905 76.0405 33.6803 76.0135 33.6364C75.9884 33.5955 75.9549 33.5383 75.9123 33.4615L73.2898 34.9185ZM73.7804 35.6407C74.1601 36.0204 74.65 36.2 75.141 36.2V33.2C75.2501 33.2 75.3868 33.2188 75.5331 33.2773C75.6812 33.3365 75.8054 33.4231 75.9017 33.5193L73.7804 35.6407ZM75.141 36.2H75.411V33.2H75.141V36.2ZM75.411 36.2C75.897 36.2 76.4796 36.0153 76.881 35.48L74.481 33.68C74.6021 33.5185 74.7667 33.3849 74.9593 33.2993C75.1432 33.2175 75.306 33.2 75.411 33.2V36.2ZM76.7417 35.6407C76.9699 35.4124 77.1403 35.138 77.2623 34.9185L74.6398 33.4615C74.6238 33.4902 74.6102 33.5135 74.599 33.5318C74.5877 33.5502 74.5797 33.5622 74.5752 33.5687C74.5706 33.5754 74.5711 33.5741 74.577 33.5668C74.5827 33.5599 74.597 33.5427 74.6204 33.5193L76.7417 35.6407ZM77.2676 34.9088L79.9375 30.0188L77.3045 28.5812L74.6345 33.4712L77.2676 34.9088ZM79.9284 30.0354C79.9843 29.936 80.0279 29.8756 80.055 29.8428C80.0823 29.8098 80.0831 29.8165 80.0512 29.8388L78.3308 27.3812C77.8775 27.6985 77.5532 28.1387 77.3137 28.5646L79.9284 30.0354ZM79.9963 29.8755C79.9815 29.8849 79.9678 29.8919 79.9563 29.8968C79.9449 29.9017 79.9373 29.9039 79.935 29.9045C79.9305 29.9056 79.9498 29.9 80.001 29.9V26.9C79.4607 26.9 78.8959 27.0198 78.3857 27.3445L79.9963 29.8755ZM80.001 29.9H84.861V26.9H80.001V29.9ZM84.861 29.9C84.9404 29.9 84.9337 29.9104 84.8742 29.8905C84.8055 29.8676 84.6738 29.8059 84.5499 29.6665L86.7921 27.6735C86.2179 27.0274 85.4253 26.9 84.861 26.9V29.9ZM84.6745 29.7911C84.5351 29.6672 84.4734 29.5355 84.4505 29.4668C84.4307 29.4073 84.441 29.4007 84.441 29.48H87.441C87.441 28.9157 87.3136 28.1231 86.6676 27.5489L84.6745 29.7911ZM84.441 29.48V48.92H87.441V29.48H84.441ZM84.441 48.92C84.441 48.9972 84.4312 49.0004 84.4455 48.956C84.462 48.9045 84.5074 48.8023 84.6104 48.6993L86.7317 50.8207C87.3056 50.2468 87.441 49.5037 87.441 48.92H84.441ZM84.6104 48.6993C84.7453 48.5644 84.8754 48.5157 84.9224 48.5018C84.9644 48.4894 84.9536 48.5 84.861 48.5V51.5C85.3841 51.5 86.1507 51.4016 86.7317 50.8207L84.6104 48.6993ZM84.861 48.5H80.241V51.5H84.861V48.5ZM80.241 48.5C80.1505 48.5 80.1305 48.4898 80.1581 48.4977C80.19 48.5068 80.2878 48.5413 80.3976 48.6389L78.4045 50.8811C78.9797 51.3924 79.6957 51.5 80.241 51.5V48.5ZM80.5221 48.7635C80.6197 48.8732 80.6542 48.971 80.6633 49.0029C80.6712 49.0305 80.661 49.0105 80.661 48.92H77.661C77.661 49.4653 77.7686 50.1814 78.2799 50.7565L80.5221 48.7635ZM80.661 48.92V38.36H77.661V48.92H80.661ZM77.8419 37.646L76.0719 40.916L78.7102 42.344L80.4802 39.074L77.8419 37.646ZM76.0653 40.9282C75.9784 41.0923 75.9247 41.1149 75.9449 41.1025L77.5172 43.6575C78.0573 43.3251 78.4436 42.8477 78.7167 42.3318L76.0653 40.9282ZM75.9752 41.0843C76.0051 41.0669 76.0147 41.0683 75.9881 41.0743C75.9602 41.0806 75.9007 41.09 75.801 41.09V44.09C76.353 44.09 76.9482 43.9899 77.4868 43.6757L75.9752 41.0843ZM75.801 41.09H74.601V44.09H75.801V41.09ZM74.601 41.09C74.4 41.09 74.3398 41.0526 74.3522 41.0593L72.9299 43.7007C73.4622 43.9874 74.0421 44.09 74.601 44.09V41.09ZM74.4731 41.1319C74.4981 41.1486 74.4375 41.1186 74.3367 40.9282L71.6853 42.3318C71.9445 42.8214 72.3039 43.2914 72.809 43.6281L74.4731 41.1319ZM74.3302 40.916L72.5602 37.646L69.9219 39.074L71.6919 42.344L74.3302 40.916ZM69.741 38.36V48.92H72.741V38.36H69.741ZM69.741 48.92C69.741 48.9972 69.7312 49.0004 69.7455 48.956C69.762 48.9045 69.8074 48.8023 69.9104 48.6993L72.0317 50.8207C72.6056 50.2468 72.741 49.5037 72.741 48.92H69.741ZM69.9104 48.6993C70.0453 48.5644 70.1754 48.5157 70.2224 48.5018C70.2644 48.4894 70.2536 48.5 70.161 48.5V51.5C70.6841 51.5 71.4507 51.4016 72.0317 50.8207L69.9104 48.6993Z" fill="#B9ED64"/>
<path d="M50.536 16.5H50.5354C50.7781 18.1961 52.2368 19.5 54 19.5C55.7632 19.5 57.2219 18.1961 57.4646 16.5H57.464H57.4579H57.4518H57.4457H57.4396H57.4334H57.4272H57.4209H57.4146H57.4083H57.402H57.3956H57.3892H57.3828H57.3763H57.3698H57.3633H57.3568H57.3502H57.3436H57.3369H57.3303H57.3236H57.3169H57.3101H57.3033H57.2965H57.2897H57.2828H57.2759H57.269H57.262H57.255H57.248H57.241H57.2339H57.2268H57.2197H57.2125H57.2053H57.1981H57.1909H57.1836H57.1763H57.169H57.1616H57.1543H57.1469H57.1394H57.132H57.1245H57.1169H57.1094H57.1018H57.0942H57.0866H57.0789H57.0713H57.0635H57.0558H57.048H57.0403H57.0324H57.0246H57.0167H57.0088H57.0009H56.9929H56.985H56.977H56.9689H56.9609H56.9528H56.9447H56.9365H56.9284H56.9202H56.912H56.9037H56.8955H56.8872H56.8789H56.8705H56.8622H56.8538H56.8453H56.8369H56.8284H56.8199H56.8114H56.8029H56.7943H56.7857H56.7771H56.7684H56.7598H56.7511H56.7423H56.7336H56.7248H56.716H56.7072H56.6984H56.6895H56.6806H56.6717H56.6628H56.6538H56.6448H56.6358H56.6268H56.6177H56.6086H56.5995H56.5904H56.5812H56.572H56.5628H56.5536H56.5444H56.5351H56.5258H56.5165H56.5071H56.4978H56.4884H56.479H56.4695H56.4601H56.4506H56.4411H56.4316H56.422H56.4125H56.4029H56.3933H56.3836H56.374H56.3643H56.3546H56.3449H56.3351H56.3253H56.3155H56.3057H56.2959H56.286H56.2762H56.2663H56.2563H56.2464H56.2364H56.2265H56.2164H56.2064H56.1964H56.1863H56.1762H56.1661H56.156H56.1458H56.1356H56.1254H56.1152H56.105H56.0947H56.0844H56.0741H56.0638H56.0535H56.0431H56.0327H56.0223H56.0119H56.0015H55.991H55.9805H55.97H55.9595H55.949H55.9384H55.9279H55.9173H55.9066H55.896H55.8853H55.8747H55.864H55.8533H55.8425H55.8318H55.821H55.8102H55.7994H55.7886H55.7777H55.7669H55.756H55.7451H55.7342H55.7232H55.7123H55.7013H55.6903H55.6793H55.6683H55.6572H55.6461H55.6351H55.624H55.6128H55.6017H55.5905H55.5794H55.5682H55.557H55.5458H55.5345H55.5233H55.512H55.5007H55.4894H55.478H55.4667H55.4553H55.444H55.4326H55.4212H55.4097H55.3983H55.3868H55.3753H55.3638H55.3523H55.3408H55.3293H55.3177H55.3061H55.2945H55.2829H55.2713H55.2597H55.248H55.2363H55.2246H55.2129H55.2012H55.1895H55.1777H55.166H55.1542H55.1424H55.1306H55.1187H55.1069H55.095H55.0832H55.0713H55.0594H55.0475H55.0355H55.0236H55.0116H54.9997H54.9877H54.9757H54.9637H54.9516H54.9396H54.9275H54.9154H54.9033H54.8912H54.8791H54.867H54.8549H54.8427H54.8305H54.8183H54.8061H54.7939H54.7817H54.7695H54.7572H54.7449H54.7327H54.7204H54.7081H54.6957H54.6834H54.6711H54.6587H54.6463H54.634H54.6216H54.6092H54.5967H54.5843H54.5719H54.5594H54.5469H54.5345H54.522H54.5095H54.4969H54.4844H54.4719H54.4593H54.4467H54.4342H54.4216H54.409H54.3964H54.3837H54.3711H54.3585H54.3458H54.3331H54.3205H54.3078H54.2951H54.2823H54.2696H54.2569H54.2441H54.2314H54.2186H54.2058H54.1931H54.1803H54.1674H54.1546H54.1418H54.129H54.1161H54.1032H54.0904H54.0775H54.0646H54.0517H54.0388H54.0259H54.0129H54H53.9871H53.9741H53.9612H53.9483H53.9354H53.9225H53.9096H53.8968H53.8839H53.871H53.8582H53.8454H53.8326H53.8197H53.8069H53.7942H53.7814H53.7686H53.7559H53.7431H53.7304H53.7177H53.7049H53.6922H53.6795H53.6669H53.6542H53.6415H53.6289H53.6163H53.6036H53.591H53.5784H53.5658H53.5533H53.5407H53.5281H53.5156H53.5031H53.4905H53.478H53.4655H53.4531H53.4406H53.4281H53.4157H53.4033H53.3908H53.3784H53.366H53.3537H53.3413H53.3289H53.3166H53.3043H53.2919H53.2796H53.2673H53.2551H53.2428H53.2305H53.2183H53.2061H53.1939H53.1817H53.1695H53.1573H53.1451H53.133H53.1209H53.1088H53.0967H53.0846H53.0725H53.0604H53.0484H53.0363H53.0243H53.0123H53.0003H52.9884H52.9764H52.9645H52.9525H52.9406H52.9287H52.9168H52.905H52.8931H52.8813H52.8694H52.8576H52.8458H52.834H52.8223H52.8105H52.7988H52.7871H52.7754H52.7637H52.752H52.7403H52.7287H52.7171H52.7055H52.6939H52.6823H52.6707H52.6592H52.6477H52.6362H52.6247H52.6132H52.6017H52.5903H52.5788H52.5674H52.556H52.5447H52.5333H52.522H52.5106H52.4993H52.488H52.4767H52.4655H52.4542H52.443H52.4318H52.4206H52.4094H52.3983H52.3872H52.376H52.3649H52.3539H52.3428H52.3317H52.3207H52.3097H52.2987H52.2877H52.2768H52.2658H52.2549H52.244H52.2331H52.2223H52.2114H52.2006H52.1898H52.179H52.1682H52.1575H52.1467H52.136H52.1253H52.1147H52.104H52.0934H52.0827H52.0721H52.0616H52.051H52.0405H52.03H52.0195H52.009H51.9985H51.9881H51.9777H51.9673H51.9569H51.9465H51.9362H51.9259H51.9156H51.9053H51.895H51.8848H51.8746H51.8644H51.8542H51.844H51.8339H51.8238H51.8137H51.8036H51.7936H51.7836H51.7735H51.7636H51.7536H51.7437H51.7337H51.7238H51.714H51.7041H51.6943H51.6845H51.6747H51.6649H51.6551H51.6454H51.6357H51.626H51.6164H51.6067H51.5971H51.5875H51.578H51.5684H51.5589H51.5494H51.5399H51.5305H51.521H51.5116H51.5022H51.4929H51.4835H51.4742H51.4649H51.4556H51.4464H51.4372H51.428H51.4188H51.4096H51.4005H51.3914H51.3823H51.3732H51.3642H51.3552H51.3462H51.3372H51.3283H51.3194H51.3105H51.3016H51.2928H51.284H51.2752H51.2664H51.2577H51.2489H51.2402H51.2316H51.2229H51.2143H51.2057H51.1971H51.1886H51.1801H51.1716H51.1631H51.1547H51.1462H51.1378H51.1295H51.1211H51.1128H51.1045H51.0963H51.088H51.0798H51.0716H51.0635H51.0553H51.0472H51.0391H51.0311H51.023H51.015H51.0071H50.9991H50.9912H50.9833H50.9754H50.9676H50.9597H50.952H50.9442H50.9365H50.9287H50.9211H50.9134H50.9058H50.8982H50.8906H50.8831H50.8755H50.868H50.8606H50.8531H50.8457H50.8384H50.831H50.8237H50.8164H50.8091H50.8019H50.7947H50.7875H50.7803H50.7732H50.7661H50.759H50.752H50.745H50.738H50.731H50.7241H50.7172H50.7103H50.7035H50.6967H50.6899H50.6831H50.6764H50.6697H50.6631H50.6564H50.6498H50.6432H50.6367H50.6302H50.6237H50.6172H50.6108H50.6044H50.598H50.5917H50.5854H50.5791H50.5728H50.5666H50.5604H50.5543H50.5482H50.5421H50.536Z" fill="#222222" stroke="#B9ED64"/>
<rect x="39.5" y="9.5" width="29" height="7" rx="3.5" fill="#222222" stroke="#B9ED64"/>
<circle cx="44" cy="13" r="1" fill="#B9ED64"/>
<circle cx="49" cy="13" r="1" fill="#B9ED64"/>
<circle cx="54" cy="13" r="1" fill="#B9ED64"/>
<circle cx="59" cy="13" r="1" fill="#B9ED64"/>
<circle cx="64" cy="13" r="1" fill="#B9ED64"/>
<path d="M44.5156 9.5H44.5129C44.7729 4.48572 48.921 0.5 54 0.5C59.079 0.5 63.2271 4.48572 63.4871 9.5H63.4844H63.4746H63.4647H63.4548H63.4447H63.4346H63.4244H63.4141H63.4037H63.3932H63.3826H63.372H63.3613H63.3505H63.3396H63.3286H63.3175H63.3064H63.2951H63.2838H63.2724H63.2609H63.2494H63.2377H63.226H63.2142H63.2022H63.1903H63.1782H63.166H63.1538H63.1415H63.1291H63.1166H63.1041H63.0914H63.0787H63.0659H63.053H63.0401H63.027H63.0139H63.0007H62.9874H62.974H62.9606H62.9471H62.9335H62.9198H62.906H62.8922H62.8782H62.8642H62.8502H62.836H62.8218H62.8074H62.7931H62.7786H62.764H62.7494H62.7347H62.7199H62.7051H62.6901H62.6751H62.66H62.6449H62.6296H62.6143H62.5989H62.5834H62.5679H62.5523H62.5366H62.5208H62.5049H62.489H62.473H62.457H62.4408H62.4246H62.4083H62.3919H62.3755H62.359H62.3424H62.3257H62.309H62.2922H62.2753H62.2583H62.2413H62.2242H62.207H62.1898H62.1724H62.1551H62.1376H62.1201H62.1025H62.0848H62.067H62.0492H62.0313H62.0134H61.9953H61.9772H61.959H61.9408H61.9225H61.9041H61.8857H61.8671H61.8485H61.8299H61.8112H61.7924H61.7735H61.7546H61.7356H61.7165H61.6973H61.6781H61.6589H61.6395H61.6201H61.6006H61.5811H61.5615H61.5418H61.522H61.5022H61.4824H61.4624H61.4424H61.4223H61.4022H61.382H61.3617H61.3414H61.321H61.3005H61.2799H61.2593H61.2387H61.218H61.1972H61.1763H61.1554H61.1344H61.1134H61.0922H61.0711H61.0498H61.0285H61.0072H60.9857H60.9642H60.9427H60.9211H60.8994H60.8777H60.8559H60.834H60.8121H60.7901H60.768H60.7459H60.7238H60.7015H60.6793H60.6569H60.6345H60.612H60.5895H60.5669H60.5443H60.5215H60.4988H60.476H60.4531H60.4301H60.4071H60.3841H60.3609H60.3377H60.3145H60.2912H60.2679H60.2444H60.221H60.1975H60.1739H60.1502H60.1265H60.1028H60.079H60.0551H60.0312H60.0072L59.9832 9.5H59.9591H59.9349H59.9107H59.8865H59.8621H59.8378H59.8134H59.7889H59.7643H59.7398H59.7151H59.6904H59.6657H59.6409H59.616H59.5911H59.5661H59.5411H59.516H59.4909H59.4657H59.4405H59.4152H59.3899H59.3645H59.3391H59.3136H59.288H59.2625H59.2368H59.2111H59.1854H59.1596H59.1337H59.1078H59.0819H59.0559H59.0298H59.0037H58.9776H58.9514H58.9251H58.8988H58.8725H58.8461H58.8196H58.7931H58.7666H58.74H58.7134H58.6867H58.6599H58.6332H58.6063H58.5794H58.5525H58.5255H58.4985H58.4715H58.4443H58.4172H58.39H58.3627H58.3354H58.3081H58.2807H58.2532H58.2258H58.1982H58.1706H58.143H58.1154H58.0877H58.0599H58.0321H58.0043H57.9764H57.9484H57.9205H57.8925H57.8644H57.8363H57.8081H57.7799H57.7517H57.7234H57.6951H57.6667H57.6383H57.6099H57.5814H57.5529H57.5243H57.4957H57.467H57.4383H57.4096H57.3808H57.352H57.3231H57.2942H57.2653H57.2363H57.2073H57.1782H57.1491H57.12H57.0908H57.0616H57.0323H57.003H56.9737H56.9443H56.9149H56.8855H56.856H56.8264H56.7969H56.7673H56.7376H56.7079H56.6782H56.6485H56.6187H56.5889H56.559H56.5291H56.4992H56.4692H56.4392H56.4091H56.379H56.3489H56.3188H56.2886H56.2584H56.2281H56.1978H56.1675H56.1371H56.1067H56.0763H56.0458H56.0153H55.9848H55.9543H55.9237H55.893H55.8624H55.8317H55.8009H55.7702H55.7394H55.7085H55.6777H55.6468H55.6159H55.5849H55.5539H55.5229H55.4919H55.4608H55.4297H55.3985H55.3673H55.3361H55.3049H55.2736H55.2423H55.211H55.1797H55.1483H55.1169H55.0854H55.0539H55.0224H54.9909H54.9594H54.9278H54.8961H54.8645H54.8328H54.8011H54.7694H54.7376H54.7059H54.6741H54.6422H54.6104H54.5785H54.5465H54.5146H54.4826H54.4506H54.4186H54.3866H54.3545H54.3224H54.2903H54.2581H54.2259H54.1937H54.1615H54.1292H54.097H54.0647H54.0323H54H53.9677H53.9353H53.903H53.8708H53.8385H53.8063H53.7741H53.7419H53.7097H53.6776H53.6455H53.6134H53.5814H53.5494H53.5174H53.4854H53.4535H53.4215H53.3896H53.3578H53.3259H53.2941H53.2624H53.2306H53.1989H53.1672H53.1355H53.1039H53.0722H53.0406H53.0091H52.9776H52.9461H52.9146H52.8831H52.8517H52.8203H52.789H52.7577H52.7264H52.6951H52.6639H52.6327H52.6015H52.5703H52.5392H52.5081H52.4771H52.4461H52.4151H52.3841H52.3532H52.3223H52.2915H52.2606H52.2298H52.1991H52.1683H52.1376H52.107H52.0763H52.0457H52.0152H51.9847H51.9542H51.9237H51.8933H51.8629H51.8325H51.8022H51.7719H51.7416H51.7114H51.6812H51.6511H51.621H51.5909H51.5608H51.5308H51.5008H51.4709H51.441H51.4111H51.3813H51.3515H51.3218H51.2921H51.2624H51.2327H51.2031H51.1736H51.144H51.1145H51.0851H51.0557H51.0263H50.997H50.9677H50.9384H50.9092H50.88H50.8509H50.8218H50.7927H50.7637H50.7347H50.7058H50.6769H50.648H50.6192H50.5904H50.5617H50.533H50.5043H50.4757H50.4471H50.4186H50.3901H50.3617H50.3333H50.3049H50.2766H50.2483H50.2201H50.1919H50.1637H50.1356H50.1075H50.0795H50.0516H50.0236H49.9957H49.9679H49.9401H49.9123H49.8846H49.857H49.8294H49.8018H49.7742H49.7468H49.7193H49.6919H49.6646H49.6373H49.61H49.5828H49.5557H49.5285H49.5015H49.4745H49.4475H49.4206H49.3937H49.3668H49.3401H49.3133H49.2866H49.26H49.2334H49.2069H49.1804H49.1539H49.1275H49.1012H49.0749H49.0486H49.0224H48.9963H48.9702H48.9441H48.9181H48.8922H48.8663H48.8404H48.8146H48.7889H48.7632H48.7375H48.712H48.6864H48.6609H48.6355H48.6101H48.5848H48.5595H48.5343H48.5091H48.484H48.4589H48.4339H48.4089H48.384H48.3591H48.3343H48.3096H48.2849H48.2602H48.2357H48.2111H48.1866H48.1622H48.1379H48.1135H48.0893H48.0651H48.0409H48.0168H47.9928H47.9688H47.9449H47.921H47.8972H47.8735H47.8498H47.8261H47.8025H47.779H47.7556H47.7321H47.7088H47.6855H47.6623H47.6391H47.6159H47.5929H47.5699H47.5469H47.524H47.5012H47.4785H47.4557H47.4331H47.4105H47.388H47.3655H47.3431H47.3207H47.2985H47.2762H47.2541H47.232H47.2099H47.1879H47.166H47.1441H47.1223H47.1006H47.0789H47.0573H47.0358H47.0143H46.9928H46.9715H46.9502H46.9289H46.9078H46.8866H46.8656H46.8446H46.8237H46.8028H46.782H46.7613H46.7406H46.7201H46.6995H46.679H46.6586H46.6383H46.618H46.5978H46.5777H46.5576H46.5376H46.5176H46.4978H46.478H46.4582H46.4385H46.4189H46.3994H46.3799H46.3605H46.3411H46.3219H46.3027H46.2835H46.2644H46.2454H46.2265H46.2076H46.1888H46.1701H46.1515H46.1329H46.1143H46.0959H46.0775H46.0592H46.041H46.0228H46.0047H45.9866H45.9687H45.9508H45.933H45.9152H45.8975H45.8799H45.8624H45.8449H45.8276H45.8102H45.793H45.7758H45.7587H45.7417H45.7247H45.7078H45.691H45.6743H45.6576H45.641H45.6245H45.6081H45.5917H45.5754H45.5592H45.543H45.527H45.511H45.4951H45.4792H45.4634H45.4477H45.4321H45.4166H45.4011H45.3857H45.3704H45.3551H45.34H45.3249H45.3099H45.2949H45.2801H45.2653H45.2506H45.236H45.2214H45.2069H45.1926H45.1782H45.164H45.1498H45.1358H45.1218H45.1078H45.094H45.0802H45.0665H45.0529H45.0394H45.026H45.0126H44.9993H44.9861H44.973H44.9599H44.947H44.9341H44.9213H44.9086H44.8959H44.8834H44.8709H44.8585H44.8462H44.834H44.8218H44.8097H44.7978H44.7858H44.774H44.7623H44.7506H44.7391H44.7276H44.7162H44.7049H44.6936H44.6825H44.6714H44.6604H44.6495H44.6387H44.628H44.6174H44.6068H44.5963H44.5859H44.5756H44.5654H44.5553H44.5452H44.5353H44.5254H44.5156Z" fill="#222222" stroke="#B9ED64"/>
<path d="M50 8C47.2386 8 47 8 47 8C47 5.23858 49.2386 3 52 3C52 3 50 5.23858 50 8Z" fill="white"/>
<defs>
<linearGradient id="paint0_linear_281_2" x1="53.9355" y1="46" x2="53.9355" y2="56" gradientUnits="userSpaceOnUse">
<stop stop-color="#B9ED64" stop-opacity="0.25"/>
<stop offset="1" stop-color="#B9ED64" stop-opacity="0.5"/>
</linearGradient>
</defs>
</svg>
