<svg width="200" height="135" viewBox="0 0 200 135" fill="none" xmlns="http://www.w3.org/2000/svg">
<path d="M72.7703 104.085H72.7668C74.2973 114.784 83.4991 123.009 94.6219 123.009C105.745 123.009 114.946 114.784 116.477 104.085H116.473H116.435H116.397H116.358H116.319H116.28H116.241H116.202H116.162H116.122H116.082H116.042H116.002H115.961H115.92H115.879H115.838H115.797H115.755H115.714H115.672H115.63H115.588H115.545H115.503H115.46H115.417H115.374H115.33H115.287H115.243H115.199H115.155H115.111H115.067H115.022H114.977H114.932H114.887H114.842H114.796H114.751H114.705H114.659H114.612H114.566H114.52H114.473H114.426H114.379H114.332H114.284H114.237H114.189H114.141H114.093H114.044H113.996H113.947H113.898H113.849H113.8H113.751H113.702H113.652H113.602H113.552H113.502H113.452H113.401H113.35H113.3H113.249H113.197H113.146H113.095H113.043H112.991H112.939H112.887H112.835H112.782H112.73H112.677H112.624H112.571H112.518H112.464H112.411H112.357H112.303H112.249H112.195H112.14H112.086H112.031H111.976H111.921H111.866H111.811H111.755H111.699H111.644H111.588H111.532H111.475H111.419H111.363H111.306H111.249H111.192H111.135H111.078H111.02H110.962H110.905H110.847H110.789H110.731H110.672H110.614H110.555H110.496H110.437H110.378H110.319H110.26H110.2H110.141H110.081H110.021H109.961H109.901H109.84H109.78H109.719H109.658H109.597H109.536H109.475H109.414H109.352H109.291H109.229H109.167H109.105H109.043H108.98H108.918H108.855H108.793H108.73H108.667H108.604H108.54H108.477H108.413H108.35H108.286H108.222H108.158H108.094H108.029H107.965H107.9H107.836H107.771H107.706H107.641H107.576H107.51H107.445H107.379H107.313H107.248H107.182H107.116H107.049H106.983H106.916H106.85H106.783H106.716H106.649H106.582H106.515H106.448H106.38H106.313H106.245H106.177H106.109H106.041H105.973H105.905H105.836H105.768H105.699H105.63H105.561H105.492H105.423H105.354H105.285H105.215H105.146H105.076H105.006H104.936H104.866H104.796H104.726H104.655H104.585H104.514H104.444H104.373H104.302H104.231H104.16H104.088H104.017H103.946H103.874H103.802H103.731H103.659H103.587H103.515H103.442H103.37H103.298H103.225H103.153H103.08H103.007H102.934H102.861H102.788H102.715H102.641H102.568H102.494H102.421H102.347H102.273H102.199H102.125H102.051H101.977H101.903H101.828H101.754H101.679H101.604H101.53H101.455H101.38H101.305H101.23H101.154H101.079H101.003H100.928H100.852H100.777H100.701H100.625H100.549H100.473H100.397H100.32H100.244H100.168H100.091H100.014H99.9377H99.861H99.7841H99.7071H99.6301H99.553H99.4758H99.3985H99.3211H99.2436H99.1661H99.0885H99.0108H98.933H98.8551H98.7772H98.6991H98.621H98.5428H98.4646H98.3862H98.3078H98.2293H98.1507H98.072H97.9933H97.9145H97.8356H97.7566H97.6776H97.5985H97.5193H97.44H97.3607H97.2813H97.2018H97.1222H97.0426H96.9629H96.8831H96.8033H96.7233H96.6433H96.5633H96.4832H96.403H96.3227H96.2424H96.162H96.0815H96.0009H95.9203H95.8397H95.7589H95.6781H95.5973H95.5163H95.4353H95.3543H95.2731H95.1919H95.1107H95.0294H94.948H94.8666H94.7851H94.7035H94.6219H94.5402H94.4587H94.3772H94.2957H94.2144H94.133H94.0518H93.9706H93.8895H93.8084H93.7274H93.6465H93.5656H93.4848H93.4041H93.3234H93.2428H93.1623H93.0818H93.0014H92.921H92.8408H92.7606H92.6805H92.6004H92.5204H92.4405H92.3606H92.2809H92.2012H92.1215H92.042H91.9625H91.8831H91.8037H91.7245H91.6453H91.5662H91.4871H91.4081H91.3293H91.2504H91.1717H91.093H91.0145H90.936H90.8575H90.7792H90.7009H90.6227H90.5446H90.4666H90.3886H90.3108H90.233H90.1553H90.0776H90.0001H89.9226H89.8453H89.768H89.6908H89.6136H89.5366H89.4596H89.3828H89.306H89.2293H89.1527H89.0762H88.9997H88.9234H88.8471H88.771H88.6949H88.6189H88.543H88.4672H88.3915H88.3158H88.2403H88.1648H88.0895H88.0142H87.9391H87.864H87.789H87.7141H87.6393H87.5646H87.49H87.4155H87.3411H87.2668H87.1926H87.1184H87.0444H86.9705H86.8967H86.8229H86.7493H86.6758H86.6023H86.529H86.4558H86.3826H86.3096H86.2367H86.1639H86.0912H86.0185H85.946H85.8736H85.8013H85.7291H85.657H85.585H85.5131H85.4413H85.3697H85.2981H85.2266H85.1553H85.084H85.0129H84.9419H84.871H84.8002H84.7295H84.6589H84.5884H84.518H84.4478H84.3776H84.3076H84.2377H84.1679H84.0982H84.0286H83.9592H83.8898H83.8206H83.7515H83.6824H83.6136H83.5448H83.4761H83.4076H83.3392H83.2709H83.2027H83.1346H83.0667H82.9989H82.9312H82.8636H82.7961H82.7288H82.6616H82.5945H82.5275H82.4606H82.3939H82.3273H82.2608H82.1945H82.1282H82.0621H81.9961H81.9303H81.8645H81.7989H81.7335H81.6681H81.6029H81.5378H81.4728H81.408H81.3433H81.2787H81.2143H81.1499H81.0858H81.0217H80.9578H80.894H80.8303H80.7668H80.7034H80.6401H80.577H80.514H80.4512H80.3884H80.3259H80.2634H80.2011H80.1389H80.0769H80.015H79.9532H79.8916H79.8301H79.7687H79.7075H79.6465H79.5855H79.5247H79.4641H79.4036H79.3432H79.283H79.2229H79.163H79.1032H79.0435H78.984H78.9247H78.8654H78.8064H78.7474H78.6886H78.63H78.5715H78.5132H78.455H78.3969H78.339H78.2813H78.2237H78.1662H78.1089H78.0518H77.9948H77.9379H77.8812H77.8247H77.7683H77.7121H77.656H77.6H77.5442H77.4886H77.4331H77.3778H77.3227H77.2677H77.2128H77.1581H77.1036H77.0492H76.995H76.9409H76.887H76.8332H76.7797H76.7262H76.6729H76.6198H76.5669H76.5141H76.4615H76.409H76.3567H76.3046H76.2526H76.2008H76.1491H76.0976H76.0463H75.9952H75.9442H75.8933H75.8427H75.7922H75.7419H75.6917H75.6417H75.5919H75.5422H75.4927H75.4434H75.3943H75.3453H75.2965H75.2478H75.1994H75.1511H75.103H75.055H75.0072H74.9596H74.9122H74.8649H74.8179H74.7709H74.7242H74.6777H74.6313H74.5851H74.539H74.4932H74.4475H74.402H74.3567H74.3115H74.2666H74.2218H74.1772H74.1328H74.0885H74.0445H74.0006H73.9569H73.9134H73.87H73.8269H73.7839H73.7411H73.6985H73.6561H73.6139H73.5718H73.5299H73.4883H73.4468H73.4055H73.3644H73.3234H73.2827H73.2421H73.2018H73.1616H73.1216H73.0818H73.0422H73.0028H72.9635H72.9245H72.8857H72.847H72.8085H72.7703Z" fill="#222222" stroke="#B9ED64" stroke-width="6.30818"/>
<rect x="3.15409" y="59.9274" width="182.937" height="44.1572" rx="22.0786" fill="#222222" stroke="#B9ED64" stroke-width="6.30818"/>
<ellipse cx="31.5413" cy="82.0067" rx="6.30818" ry="6.30818" fill="#B9ED64"/>
<ellipse cx="63.0823" cy="82.0067" rx="6.30818" ry="6.30818" fill="#B9ED64"/>
<ellipse cx="94.6231" cy="82.0067" rx="6.30818" ry="6.30818" fill="#B9ED64"/>
<ellipse cx="126.164" cy="82.0067" rx="6.30818" ry="6.30818" fill="#B9ED64"/>
<ellipse cx="157.705" cy="82.0067" rx="6.30818" ry="6.30818" fill="#B9ED64"/>
<path d="M34.7935 59.9277H34.7764C36.4166 28.2967 62.5834 3.15409 94.6226 3.15409C126.662 3.15409 152.828 28.2967 154.469 59.9277H154.452H154.39H154.328H154.265H154.201H154.138H154.073H154.008H153.943H153.877H153.81H153.743H153.675H153.607H153.538H153.469H153.399H153.329H153.258H153.187H153.115H153.042H152.969H152.896H152.822H152.747H152.672H152.596H152.52H152.444H152.366H152.289H152.211H152.132H152.053H151.973H151.893H151.812H151.731H151.649H151.567H151.484H151.4H151.317H151.232H151.148H151.062H150.976H150.89H150.803H150.716H150.628H150.54H150.451H150.362H150.272H150.182H150.091H149.999H149.908H149.815H149.723H149.629H149.536H149.441H149.347H149.252H149.156H149.06H148.963H148.866H148.768H148.67H148.572H148.473H148.373H148.273H148.173H148.072H147.971H147.869H147.766H147.664H147.56H147.457H147.352H147.248H147.143H147.037H146.931H146.824H146.717H146.61H146.502H146.394H146.285H146.176H146.066H145.956H145.845H145.734H145.623H145.511H145.398H145.286H145.172H145.058H144.944H144.83H144.715H144.599H144.483H144.367H144.25H144.133H144.015H143.897H143.778H143.659H143.54H143.42H143.3H143.179H143.058H142.936H142.814H142.692H142.569H142.445H142.322H142.198H142.073H141.948H141.823H141.697H141.571H141.444H141.317H141.189H141.061H140.933H140.804H140.675H140.546H140.416H140.285H140.155H140.024H139.892H139.76H139.628H139.495H139.362H139.228H139.094H138.96H138.825H138.69H138.554H138.418H138.282H138.145H138.008H137.871H137.733H137.594H137.456H137.317H137.177H137.037H136.897H136.756H136.616H136.474H136.332H136.19H136.048H135.905H135.762H135.618H135.474H135.33H135.185H135.04H134.894H134.748H134.602H134.456H134.309H134.161H134.014H133.866H133.717H133.568H133.419H133.27H133.12H132.97H132.819H132.668H132.517H132.365H132.213H132.061H131.908H131.755H131.602H131.448H131.294H131.14H130.985H130.83H130.675H130.519H130.363H130.206H130.049H129.892H129.735H129.577H129.419H129.26H129.101H128.942H128.783H128.623H128.463H128.302H128.142H127.98H127.819H127.657H127.495H127.333H127.17H127.007H126.844H126.68H126.516H126.352H126.187H126.022H125.857H125.691H125.525H125.359H125.192H125.026H124.859H124.691H124.523H124.355H124.187H124.018H123.849H123.68H123.51H123.341H123.17H123H122.829H122.658H122.487H122.315H122.143H121.971H121.799H121.626H121.453H121.279H121.106H120.932H120.758H120.583H120.408H120.233H120.058H119.882H119.706H119.53H119.354H119.177H119H118.823H118.645H118.467H118.289H118.111H117.932H117.753H117.574H117.394H117.215H117.035H116.854H116.674H116.493H116.312H116.131H115.949H115.768H115.585H115.403H115.221H115.038H114.855H114.671H114.488H114.304H114.12H113.936H113.751H113.566H113.381H113.196H113.01H112.825H112.638H112.452H112.266H112.079H111.892H111.705H111.517H111.33H111.142H110.954H110.765H110.577H110.388H110.199H110.009H109.82H109.63H109.44H109.25H109.059H108.869H108.678H108.487H108.296H108.104H107.912H107.72H107.528H107.336H107.143H106.95H106.757H106.564H106.371H106.177H105.983H105.789H105.595H105.4H105.206H105.011H104.816H104.62H104.425H104.229H104.033H103.837H103.641H103.445H103.248H103.051H102.854H102.657H102.459H102.262H102.064H101.866H101.668H101.47H101.271H101.072H100.873H100.674H100.475H100.276H100.076H99.8762H99.6762H99.4761H99.2758H99.0753H98.8746H98.6738H98.4728H98.2716H98.0702H97.8687H97.6671H97.4652H97.2632H97.061H96.8587H96.6562H96.4535H96.2507H96.0477H95.8446H95.6413L95.4379 59.9277H95.2343H95.0305H94.8266H94.6226H94.4185H94.2146H94.0108H93.8072H93.6038H93.4005H93.1974H92.9944H92.7916H92.5889H92.3864H92.1841H91.9819H91.7799H91.5781H91.3764H91.1749H90.9735H90.7723H90.5713H90.3705H90.1698H89.9693H89.769H89.5689H89.3689H89.1691H88.9695H88.7701H88.5708H88.3717H88.1728H87.9741H87.7756H87.5772H87.379H87.1811H86.9833H86.7857H86.5882H86.391H86.194H85.9971H85.8005H85.604H85.4078H85.2117H85.0158H84.8201H84.6247H84.4294H84.2343H84.0394H83.8448H83.6503H83.456H83.262H83.0681H82.8745H82.681H82.4878H82.2948H82.102H81.9094H81.717H81.5248H81.3329H81.1411H80.9496H80.7583H80.5672H80.3763H80.1857H79.9953H79.8051H79.6151H79.4253H79.2358H79.0465H78.8574H78.6686H78.48H78.2916H78.1034H77.9155H77.7278H77.5404H77.3531H77.1662H76.9794H76.7929H76.6066H76.4206H76.2348H76.0493H75.864H75.6789H75.4941H75.3095H75.1252H74.9411H74.7573H74.5737H74.3904H74.2073H74.0245H73.8419H73.6596H73.4776H73.2958H73.1142H72.9329H72.7519H72.5711H72.3906H72.2104H72.0304H71.8507H71.6712H71.4921H71.3131H71.1345H70.9561H70.778H70.6002H70.4226H70.2453H70.0683H69.8915H69.7151H69.5389H69.363H69.1873H69.012H68.8369H68.6621H68.4876H68.3134H68.1394H67.9658H67.7924H67.6193H67.4465H67.274H67.1018H66.9299H66.7582H66.5869H66.4158H66.2451H66.0746H65.9045H65.7346H65.5651H65.3958H65.2268H65.0582H64.8898H64.7218H64.554H64.3866H64.2195H64.0526H63.8861H63.7199H63.554H63.3884H63.2232H63.0582H62.8936H62.7292H62.5652H62.4015H62.2381H62.0751H61.9124H61.7499H61.5878H61.4261H61.2646H61.1035H60.9427H60.7823H60.6221H60.4623H60.3028H60.1437H59.9849H59.8264H59.6682H59.5104H59.3529H59.1958H59.039H58.8825H58.7264H58.5706H58.4152H58.2601H58.1053H57.9509H57.7968H57.6431H57.4897H57.3367H57.184H57.0317H56.8797H56.7281H56.5768H56.4259H56.2754H56.1251H55.9753H55.8258H55.6767H55.5279H55.3795H55.2315H55.0838H54.9365H54.7895H54.6429H54.4967H54.3508H54.2053H54.0602H53.9155H53.7711H53.6271H53.4835H53.3402H53.1973H53.0548H52.9127H52.771H52.6296H52.4886H52.348H52.2078H52.0679H51.9285H51.7894H51.6507H51.5124H51.3745H51.237H51.0999H50.9631H50.8268H50.6908H50.5553H50.4201H50.2853H50.151H50.017H49.8834H49.7502H49.6175H49.4851H49.3531H49.2216H49.0904H48.9596H48.8293H48.6993H48.5698H48.4407H48.312H48.1836H48.0558H47.9283H47.8012H47.6746H47.5483H47.4225H47.2971H47.1721H47.0476H46.9234H46.7997H46.6764H46.5535H46.4311H46.3091H46.1875H46.0663H45.9456H45.8253H45.7054H45.586H45.4669H45.3484H45.2302H45.1125H44.9952H44.8784H44.762H44.6461H44.5305H44.4155H44.3008H44.1866H44.0729H43.9596H43.8467H43.7343H43.6224H43.5109H43.3998H43.2892H43.179H43.0693H42.9601H42.8513H42.7429H42.635H42.5276H42.4207H42.3141H42.2081H42.1025H41.9974H41.8927H41.7885H41.6848H41.5815H41.4788H41.3764H41.2746H41.1732H41.0723H40.9718H40.8719H40.7724H40.6733H40.5748H40.4767H40.3791H40.282H40.1854H40.0892H39.9936H39.8984H39.8037H39.7095H39.6157H39.5225H39.4297H39.3375H39.2457H39.1544H39.0636H38.9733H38.8835H38.7942H38.7054H38.617H38.5292H38.4419H38.3551H38.2687H38.1829H38.0976H38.0128H37.9284H37.8446H37.7613H37.6785H37.5962H37.5144H37.4332H37.3524H37.2722H37.1924H37.1132H37.0345H36.9563H36.8786H36.8015H36.7248H36.6487H36.5731H36.4981H36.4235H36.3495H36.276H36.203H36.1305H36.0586H35.9872H35.9163H35.846H35.7762H35.7069H35.6382H35.57H35.5023H35.4352H35.3686H35.3025H35.237H35.172H35.1076H35.0437H34.9803H34.9175H34.8552H34.7935Z" fill="#222222" stroke="#B9ED64" stroke-width="6.30818"/>
<path d="M69.3896 50.4652C51.9701 50.4652 50.4651 50.4652 50.4651 50.4652C50.4651 33.0457 64.5864 18.9243 82.006 18.9243C82.006 18.9243 69.3896 33.0457 69.3896 50.4652Z" fill="white"/>
</svg>
